<svg width="132" height="132" viewBox="0 0 132 132" fill="none" xmlns="http://www.w3.org/2000/svg">
<path fill-rule="evenodd" clip-rule="evenodd" d="M0 51.8298C0 70.2984 9.36401 86.4992 23.4375 95.6057V83.8289C14.8683 76.1448 9.375 64.7431 9.375 51.8298C9.375 28.207 27.7584 9.64233 49.7263 9.64233C68.3619 9.64233 84.4179 23.0019 88.8603 41.4758L88.8744 41.4701C89.5018 44.0333 89.9018 46.6908 90.0508 49.418C92.9715 47.9541 96.2212 47.1424 99.6061 47.1424C111.587 47.1424 121.875 57.3123 121.875 70.5798C121.875 80.6666 115.929 88.9631 107.812 92.3612V102.278C121.311 98.53 131.25 85.7585 131.25 70.5798C131.25 52.458 117.083 37.7674 99.6061 37.7674C98.9318 37.7674 98.2624 37.7892 97.5985 37.8323C91.716 16.1569 72.5107 0.267334 49.7263 0.267334C22.2632 0.267334 0 23.3527 0 51.8298ZM71.5147 105.832L75 103.392L71.5147 100.953L72.2541 96.7632L68.0646 97.5026L65.625 94.0173L63.1854 97.5026L58.9959 96.7632L59.7353 100.953L56.25 103.392L59.7353 105.832L58.9959 110.021L63.1854 109.282L65.625 112.767L68.0646 109.282L72.2541 110.021L71.5147 105.832ZM60.1333 84.6423L56.648 87.0819L57.3874 91.2715L53.1979 90.5321L50.7583 94.0173L48.3187 90.5321L44.1291 91.2715L44.8685 87.0819L41.3833 84.6423L44.8685 82.2027L44.1291 78.0132L48.3187 78.7526L50.7583 75.2673L53.1979 78.7526L57.3874 78.0132L56.648 82.2027L60.1333 84.6423ZM56.648 124.582L60.1333 122.142L56.648 119.703L57.3874 115.513L53.1979 116.253L50.7583 112.767L48.3187 116.253L44.1291 115.513L44.8685 119.703L41.3833 122.142L44.8685 124.582L44.1291 128.771L48.3187 128.032L50.7583 131.517L53.1979 128.032L57.3874 128.771L56.648 124.582ZM103.125 103.392L99.6397 105.832L100.379 110.021L96.1896 109.282L93.75 112.767L91.3104 109.282L87.1209 110.021L87.8603 105.832L84.375 103.392L87.8603 100.953L87.1209 96.7632L91.3104 97.5026L93.75 94.0173L96.1896 97.5026L100.379 96.7632L99.6397 100.953L103.125 103.392ZM84.773 87.0819L88.2583 84.6423L84.773 82.2027L85.5124 78.0132L81.3229 78.7526L78.8833 75.2673L76.4437 78.7526L72.2541 78.0132L72.9935 82.2027L69.5083 84.6423L72.9935 87.0819L72.2541 91.2715L76.4437 90.5321L78.8833 94.0173L81.3229 90.5321L85.5124 91.2715L84.773 87.0819ZM88.2583 122.142L84.773 124.582L85.5124 128.771L81.3229 128.032L78.8833 131.517L76.4437 128.032L72.2541 128.771L72.9935 124.582L69.5083 122.142L72.9935 119.703L72.2541 115.513L76.4437 116.253L78.8833 112.767L81.3229 116.253L85.5124 115.513L84.773 119.703L88.2583 122.142ZM42.5855 105.832L46.0708 103.392L42.5855 100.953L43.3249 96.7632L39.1354 97.5026L36.6958 94.0173L34.2562 97.5026L30.0666 96.7632L30.806 100.953L27.3208 103.392L30.806 105.832L30.0666 110.021L34.2562 109.282L36.6958 112.767L39.1354 109.282L43.3249 110.021L42.5855 105.832Z" fill="#C2C2C2"/>
</svg>
