<svg width="113" height="99" viewBox="0 0 113 99" fill="none" xmlns="http://www.w3.org/2000/svg">
<path fill-rule="evenodd" clip-rule="evenodd" d="M29.7022 12.1444L33.1875 9.70483L29.7022 7.26523L30.4416 3.07571L26.2521 3.8151L23.8125 0.329834L21.3729 3.8151L17.1834 3.07571L17.9228 7.26523L14.4375 9.70483L17.9228 12.1444L17.1834 16.334L21.3729 15.5946L23.8125 19.0798L26.2521 15.5946L30.4416 16.334L29.7022 12.1444ZM44.5693 30.8944L48.0545 28.4548L44.5693 26.0152L45.3086 21.8257L41.1191 22.5651L38.6795 19.0798L36.2399 22.5651L32.0504 21.8257L32.7898 26.0152L29.3045 28.4548L32.7898 30.8944L32.0504 35.084L36.2399 34.3446L38.6795 37.8298L41.1191 34.3446L45.3086 35.084L44.5693 30.8944ZM76.1795 28.4548L72.6943 30.8944L73.4336 35.084L69.2441 34.3446L66.8045 37.8298L64.3649 34.3446L60.1754 35.084L60.9148 30.8944L57.4295 28.4548L60.9148 26.0152L60.1754 21.8257L64.3649 22.5651L66.8045 19.0798L69.2441 22.5651L73.4336 21.8257L72.6943 26.0152L76.1795 28.4548ZM57.8272 12.1444L61.3125 9.70483L57.8272 7.26523L58.5666 3.07571L54.3771 3.8151L51.9375 0.329834L49.4979 3.8151L45.3084 3.07571L46.0478 7.26523L42.5625 9.70483L46.0478 12.1444L45.3084 16.334L49.4979 15.5946L51.9375 19.0798L54.3771 15.5946L58.5666 16.334L57.8272 12.1444ZM19.125 28.4548L15.6397 30.8944L16.3791 35.084L12.1896 34.3446L9.75 37.8298L7.31039 34.3446L3.12087 35.084L3.86027 30.8944L0.375 28.4548L3.86027 26.0152L3.12087 21.8257L7.31039 22.5651L9.75 19.0798L12.1896 22.5651L16.3791 21.8257L15.6397 26.0152L19.125 28.4548ZM89.5179 29.6197L89.5221 29.6174C90.7691 28.9135 92.161 28.505 93.5906 28.4232C95.0218 28.3414 96.4526 28.5893 97.7729 29.1478C99.0933 29.7063 100.268 30.5605 101.206 31.6446C102.144 32.7287 102.821 34.0138 103.185 35.4008C103.549 36.7879 103.589 38.2399 103.303 39.6451C103.017 41.0502 102.413 42.371 101.536 43.5057C100.66 44.6403 99.5347 45.5586 98.2475 46.1897C96.9603 46.8209 95.5454 47.1481 94.1119 47.1461L94.1119 47.1562H0.375V56.5312H94.0988V56.5325C96.9685 56.5366 99.8009 55.8816 102.378 54.6182C102.751 54.435 103.118 54.2398 103.477 54.0329C105.597 52.8126 107.461 51.1872 108.962 49.245C110.716 46.9736 111.926 44.3295 112.499 41.5166C113.071 38.7037 112.99 35.7969 112.262 33.0202C111.534 30.2435 110.179 27.6709 108.3 25.5007C106.422 23.3305 104.071 21.6205 101.428 20.5025C99.1675 19.5464 96.7455 19.0451 94.2996 19.0223C93.8852 19.0184 93.4702 19.0283 93.0551 19.052C90.1936 19.2156 87.4077 20.0332 84.9115 21.442L84.9023 21.4472L84.9076 21.4567L89.5179 29.6197ZM0.375 75.5756L62.2773 97.598L62.2765 97.5998C64.5168 98.4937 66.9265 98.8823 69.3341 98.7379C70.2598 98.6824 71.1765 98.5486 72.0745 98.3392C73.512 98.0041 74.9019 97.4755 76.2052 96.7644C78.3226 95.6092 80.1592 94.001 81.5841 92.0544C83.009 90.1079 83.9871 87.8709 84.4487 85.5029C84.9103 83.1349 84.8441 80.6942 84.2547 78.3547C83.6654 76.0152 82.5674 73.8346 81.039 71.9682C80.0982 70.8194 79.0087 69.807 77.8022 68.9562C77.0487 68.4248 76.2495 67.9564 75.4126 67.557C73.239 66.52 70.8638 65.9746 68.4557 65.9594V65.9454L0.375 65.9452V75.5756ZM68.3921 75.3212L27.6333 75.3211L65.9259 88.9441L65.9224 88.9538C66.8326 89.2896 67.8032 89.4334 68.7729 89.3752C69.8039 89.3134 70.8085 89.0248 71.7152 88.5301C72.622 88.0354 73.4084 87.3468 74.0186 86.5132C74.6288 85.6796 75.0476 84.7217 75.2453 83.7077C75.443 82.6936 75.4146 81.6485 75.1623 80.6467C74.9099 79.6449 74.4397 78.7111 73.7852 77.9118C73.1307 77.1126 72.3081 76.4676 71.3759 76.0229C70.4449 75.5787 69.4277 75.3451 68.3964 75.3387L68.392 75.3387L68.392 75.3369L68.3921 75.3212Z" fill="#C2C2C2"/>
</svg>
