<svg width="113" height="114" viewBox="0 0 113 114" fill="none" xmlns="http://www.w3.org/2000/svg">
<path fill-rule="evenodd" clip-rule="evenodd" d="M110.958 71.4505C113.116 63.3986 113.412 55.2865 112.111 47.5708C110.369 53.1581 107.261 57.9848 103.252 61.7734L103.248 61.8138C100.248 64.7684 96.7108 67.1307 92.8225 68.771C88.4539 70.6138 83.7422 71.5027 79.0025 71.3782C74.2627 71.2537 69.6042 70.1186 65.3384 68.049C61.0726 65.9793 57.2978 63.0227 54.2666 59.3769C51.2353 55.7311 49.0173 51.4801 47.761 46.9082C46.5047 42.3364 46.239 37.5489 46.9817 32.8661C47.7243 28.1832 49.4582 23.7129 52.0675 19.7541C54.5012 16.0615 57.6441 12.8933 61.3104 10.4315C65.9853 7.16461 71.4813 5.10542 77.2765 4.56452C75.3079 3.79039 73.2754 3.11907 71.1835 2.55857C41.1761 -5.48191 10.3321 12.3259 2.29163 42.3333C-5.74884 72.3408 12.0589 103.185 42.0664 111.225C72.0739 119.266 102.918 101.458 110.958 71.4505ZM99.0287 76.8905C89.5571 97.0339 66.7489 108.133 44.4928 102.17C19.4866 95.4693 4.64679 69.766 11.3472 44.7598C15.9744 27.4906 29.6645 15.0701 45.9291 11.2441C45.1589 12.2183 44.4295 13.2271 43.7436 14.2679C40.3533 19.4117 38.1004 25.22 37.1355 31.3045C36.1705 37.389 36.5157 43.6094 38.1481 49.5498C39.7804 55.4901 42.6623 61.0135 46.6009 65.7505C50.5395 70.4876 55.4441 74.3291 60.9867 77.0183C66.5293 79.7074 72.5822 81.1822 78.7406 81.344C84.8991 81.5058 91.0211 80.3508 96.6972 77.9564C97.4858 77.6238 98.2633 77.2682 99.0287 76.8905ZM102.846 22.2709L100.387 14.7048L97.9289 22.2709L89.9734 22.2709L96.4095 26.947L93.9512 34.5131L100.387 29.837L106.823 34.5131L104.365 26.947L110.801 22.2709L102.846 22.2709ZM72.2623 14.7048L74.7207 22.2709L82.6761 22.2709L76.24 26.947L78.6984 34.5131L72.2623 29.837L65.8262 34.5131L68.2845 26.947L61.8484 22.2709L69.8039 22.2709L72.2623 14.7048ZM88.7832 41.0209L86.3248 33.4548L83.8664 41.0209L75.9109 41.0209L82.347 45.697L79.8887 53.2631L86.3248 48.587L92.7609 53.2631L90.3025 45.697L96.7386 41.0209L88.7832 41.0209Z" fill="#C2C2C2"/>
</svg>
