<svg width="132" height="132" viewBox="0 0 132 132" fill="none" xmlns="http://www.w3.org/2000/svg">
<path fill-rule="evenodd" clip-rule="evenodd" d="M44.6801 28.6546C46.3394 28.4812 48.0229 28.3923 49.7263 28.3923C72.5107 28.3923 91.716 44.2819 97.5985 65.9573C98.0694 65.9268 98.543 65.9069 99.0192 65.8979C98.8257 65.8945 98.6317 65.8928 98.4374 65.8928L98.2802 65.8932L98.2799 65.8923H105.469H105.751V65.89C114.682 65.7393 121.875 58.4527 121.875 49.4861C121.875 40.4252 114.53 33.0798 105.469 33.0798C102.426 33.0798 99.5774 33.9079 97.1351 35.351C97.1278 32.7319 96.7301 30.2047 95.9969 27.8245C92.3444 17.243 82.2969 9.64233 70.4742 9.64233C58.3446 9.64233 48.0835 17.6428 44.6801 28.6546ZM118.016 72.0136C126.029 77.9667 131.25 87.7035 131.25 98.7048C131.25 116.827 117.083 131.517 99.6061 131.517C99.2148 131.517 98.8253 131.51 98.4375 131.495V131.517H50.4709V131.512C50.2231 131.515 49.975 131.517 49.7263 131.517C22.2632 131.517 0 108.432 0 79.9548C0 56.9595 14.5169 37.48 34.5662 30.8325C37.3449 13.5051 52.3636 0.267334 70.4742 0.267334C86.0126 0.267334 99.2751 10.0119 104.484 23.7233C104.811 23.711 105.139 23.7048 105.469 23.7048C119.707 23.7048 131.25 35.2475 131.25 49.4861C131.25 59.17 125.911 67.6068 118.016 72.0136ZM98.4375 122.142H50.4709H49.9314V122.142L49.7263 122.142C27.7584 122.142 9.375 103.578 9.375 79.9548C9.375 56.332 27.7584 37.7673 49.7263 37.7673C68.3619 37.7673 84.4179 51.1269 88.8603 69.6008L88.8744 69.5951C89.5018 72.1583 89.9018 74.8158 90.0508 77.543C92.9715 76.0791 96.2212 75.2674 99.6061 75.2674C111.587 75.2674 121.875 85.4373 121.875 98.7048C121.875 111.879 111.731 122 99.8576 122.141V122.142H98.4375Z" fill="#C2C2C2"/>
</svg>
