<svg width="467" height="467" viewBox="0 0 467 467" fill="none" xmlns="http://www.w3.org/2000/svg">
<path d="M186.238 4.82779C194.475 3.11964 202.712 1.90495 210.835 1.10782C219.186 0.31068 227.461 -0.0689084 235.622 0.00700936C240.215 0.0449683 243.897 3.8029 243.859 8.39592C243.821 11.9261 241.582 14.9249 238.469 16.1016C203.737 29.7668 175.951 55.2372 158.907 86.781C142.129 117.793 135.752 154.652 143.382 191.851L143.42 192.117C152.113 234.099 176.938 268.604 210.152 290.468C243.328 312.333 284.817 321.519 326.799 312.94L327.065 312.902C357.28 306.639 383.586 292.063 404.122 271.982C425.379 251.219 440.41 224.61 447.129 195.457C448.154 190.978 452.633 188.207 457.074 189.232C460.453 190.029 462.882 192.762 463.413 195.989C473.435 257.482 458.289 317.723 425.227 365.703C392.316 413.455 341.603 449.099 280.3 461.701C217.212 474.683 154.846 460.866 105.006 428.069C55.1276 395.159 17.814 343.345 4.83208 280.257C-7.84619 218.65 5.02187 157.726 36.1861 108.494C67.5022 59.109 117.228 21.4158 178.076 6.64981C179.253 6.34614 180.62 6.04247 182.1 5.70084H182.138L186.238 4.82779Z" fill="#C2C2C2"/>
</svg>
