<svg width="132" height="127" viewBox="0 0 132 127" fill="none" xmlns="http://www.w3.org/2000/svg">
<path fill-rule="evenodd" clip-rule="evenodd" d="M107.812 102.278C121.311 98.53 131.25 85.7585 131.25 70.5798C131.25 63.8106 129.273 57.5201 125.886 52.2953C129.28 47.0294 131.25 40.7584 131.25 34.0272C131.25 15.3821 116.136 0.267334 97.4905 0.267334C89.3086 0.267334 81.8064 3.17798 75.9631 8.02032C68.3474 3.10596 59.3566 0.267334 49.7263 0.267334C22.2632 0.267334 0 23.3527 0 51.8298C0 72.2802 11.4815 89.95 28.125 98.2862V87.4561C16.9228 80.0263 9.375 66.9664 9.375 51.8298C9.375 28.207 27.7584 9.64233 49.7263 9.64233C68.3619 9.64233 84.4179 23.0019 88.8603 41.4758L88.8744 41.4701C89.5018 44.0333 89.9018 46.6908 90.0508 49.418C92.9715 47.9541 96.2212 47.1424 99.6061 47.1424C111.587 47.1424 121.875 57.3123 121.875 70.5798C121.875 80.6666 115.929 88.9631 107.812 92.3612V102.278ZM83.5409 14.0239C90.1491 20.3819 95.0876 28.58 97.5985 37.8323C98.2624 37.7892 98.9318 37.7674 99.6061 37.7674C107.059 37.7674 113.911 40.4393 119.318 44.9099C120.955 41.634 121.875 37.9381 121.875 34.0272C121.875 20.5598 110.958 9.64233 97.4905 9.64233C92.3029 9.64233 87.4936 11.2623 83.5409 14.0239ZM39.1918 88.9757C38.2185 91.2555 37.5042 93.6928 37.5049 95.9351C37.5062 100.054 40.6552 103.392 44.5384 103.392C48.4217 103.392 51.5687 100.054 51.5674 95.9351C51.5668 93.8385 50.7785 91.3554 49.7298 88.9792C47.645 84.2556 44.5312 79.9548 44.5312 79.9548C44.5312 79.9548 41.2707 84.1062 39.1918 88.9757ZM60.9424 95.9351C60.9417 93.6928 61.656 91.2555 62.6293 88.9757C64.7082 84.1062 67.9688 79.9548 67.9688 79.9548C67.9688 79.9548 71.0825 84.2556 73.1673 88.9792C74.216 91.3554 75.0043 93.8385 75.0049 95.9351C75.0062 100.054 71.8592 103.392 67.9759 103.392C64.0927 103.392 60.9437 100.054 60.9424 95.9351ZM52.6661 112.413C51.6928 114.693 50.9785 117.13 50.9792 119.373C50.9804 123.491 54.1295 126.83 58.0127 126.83C61.896 126.83 65.0429 123.491 65.0417 119.373C65.041 117.276 64.2527 114.793 63.204 112.417C61.1193 107.693 58.0055 103.392 58.0055 103.392C58.0055 103.392 54.7449 107.544 52.6661 112.413ZM84.3799 95.9351C84.3792 93.6928 85.0935 91.2555 86.0668 88.9757C88.1457 84.1062 91.4062 79.9548 91.4062 79.9548C91.4062 79.9548 94.52 84.2556 96.6048 88.9792C97.6534 91.3554 98.4418 93.8385 98.4424 95.9351C98.4437 100.054 95.2967 103.392 91.4134 103.392C87.5302 103.392 84.3812 100.054 84.3799 95.9351ZM76.1734 112.413C75.2001 114.693 74.4858 117.13 74.4865 119.373C74.4878 123.491 77.6368 126.83 81.52 126.83C85.4033 126.83 88.5503 123.491 88.549 119.373C88.5483 117.276 87.76 114.793 86.7113 112.417C84.6266 107.693 81.5128 103.392 81.5128 103.392C81.5128 103.392 78.2522 107.544 76.1734 112.413Z" fill="#C2C2C2"/>
</svg>
