<svg width="132" height="127" viewBox="0 0 132 127" fill="none" xmlns="http://www.w3.org/2000/svg">
<path fill-rule="evenodd" clip-rule="evenodd" d="M131.25 70.5798C131.25 85.7585 121.311 98.53 107.812 102.278V92.3612C115.929 88.9631 121.875 80.6666 121.875 70.5798C121.875 57.3123 111.587 47.1424 99.6061 47.1424C96.2212 47.1424 92.9715 47.9541 90.0508 49.418C89.9018 46.6908 89.5018 44.0333 88.8744 41.4701L88.8603 41.4758C84.4179 23.0019 68.3619 9.64233 49.7263 9.64233C27.7584 9.64233 9.375 28.207 9.375 51.8298C9.375 66.9664 16.9228 80.0263 28.125 87.4561V98.2862C11.4815 89.95 0 72.2802 0 51.8298C0 23.3527 22.2632 0.267334 49.7263 0.267334C72.5107 0.267334 91.716 16.1569 97.5985 37.8323C98.2624 37.7892 98.9318 37.7674 99.6061 37.7674C117.083 37.7674 131.25 52.458 131.25 70.5798ZM37.5049 95.9351C37.5042 93.6928 38.2185 91.2555 39.1918 88.9757C41.2707 84.1062 44.5312 79.9548 44.5312 79.9548C44.5312 79.9548 47.645 84.2556 49.7298 88.9792C50.7785 91.3554 51.5668 93.8385 51.5674 95.9351C51.5687 100.054 48.4217 103.392 44.5384 103.392C40.6552 103.392 37.5062 100.054 37.5049 95.9351ZM62.6293 88.9757C61.656 91.2555 60.9417 93.6928 60.9424 95.9351C60.9437 100.054 64.0927 103.392 67.9759 103.392C71.8592 103.392 75.0062 100.054 75.0049 95.9351C75.0043 93.8385 74.216 91.3554 73.1673 88.9792C71.0825 84.2556 67.9688 79.9548 67.9688 79.9548C67.9688 79.9548 64.7082 84.1062 62.6293 88.9757ZM50.9792 119.373C50.9785 117.13 51.6928 114.693 52.6661 112.413C54.7449 107.544 58.0055 103.392 58.0055 103.392C58.0055 103.392 61.1193 107.693 63.204 112.417C64.2527 114.793 65.041 117.276 65.0417 119.373C65.0429 123.491 61.896 126.83 58.0127 126.83C54.1295 126.83 50.9804 123.491 50.9792 119.373ZM86.0668 88.9757C85.0935 91.2555 84.3792 93.6928 84.3799 95.9351C84.3812 100.054 87.5302 103.392 91.4134 103.392C95.2967 103.392 98.4437 100.054 98.4424 95.9351C98.4418 93.8385 97.6534 91.3554 96.6048 88.9792C94.52 84.2556 91.4062 79.9548 91.4062 79.9548C91.4062 79.9548 88.1457 84.1062 86.0668 88.9757ZM74.4865 119.373C74.4858 117.13 75.2001 114.693 76.1734 112.413C78.2522 107.544 81.5128 103.392 81.5128 103.392C81.5128 103.392 84.6266 107.693 86.7113 112.417C87.76 114.793 88.5483 117.276 88.549 119.373C88.5503 123.491 85.4033 126.83 81.52 126.83C77.6368 126.83 74.4878 123.491 74.4865 119.373Z" fill="#C2C2C2"/>
</svg>
