<svg width="132" height="127" viewBox="0 0 132 127" fill="none" xmlns="http://www.w3.org/2000/svg">
<path fill-rule="evenodd" clip-rule="evenodd" d="M107.812 102.278C121.311 98.53 131.25 85.7585 131.25 70.5798C131.25 60.8169 127.138 52.0499 120.612 46.0393C125.249 42.7621 128.811 37.9047 130.395 31.9885C131.396 28.2526 131.502 24.4878 130.846 20.9214C128.309 26.7256 121.876 30.0113 115.533 28.4035C113.458 27.8776 111.623 26.8864 110.113 25.5697C109.455 25.0846 108.856 24.5203 108.331 23.888C107.408 22.7774 106.733 21.4824 106.35 20.0897L106.311 19.9436C105.492 17.5902 105.329 14.9788 105.986 12.3828C107.316 7.12902 111.629 3.41922 116.658 2.60325C115.369 2.00764 114.011 1.51346 112.593 1.13317C100.873 -2.00924 88.8688 3.66353 83.6093 14.0898C74.7292 5.51381 62.8186 0.267334 49.7263 0.267334C22.2632 0.267334 0 23.3527 0 51.8298C0 72.2802 11.4815 89.95 28.125 98.2862V87.4561C16.9228 80.0263 9.375 66.9664 9.375 51.8298C9.375 28.207 27.7584 9.64233 49.7263 9.64233C68.3619 9.64233 84.4179 23.0019 88.8603 41.4758L88.8744 41.4701C89.5018 44.0333 89.9018 46.6908 90.0508 49.418C92.9715 47.9541 96.2212 47.1424 99.6061 47.1424C111.587 47.1424 121.875 57.3123 121.875 70.5798C121.875 80.6666 115.929 88.9631 107.812 92.3612V102.278ZM90.5724 22.4143C93.6867 27.0552 96.0841 32.252 97.5985 37.8323C98.2624 37.7892 98.9318 37.7674 99.6061 37.7674C103.89 37.7674 107.975 38.6501 111.702 40.2497C113.56 39.5392 115.275 38.4826 116.747 37.1364C116.368 37.1483 115.989 37.1493 115.609 37.1393C112.801 37.0655 110.041 36.3926 107.514 35.1657C104.987 33.9387 102.751 32.186 100.955 30.0247C99.1593 27.8634 97.8453 25.3434 97.1011 22.6331C96.3568 19.9228 96.1994 17.0847 96.6394 14.3086C96.7352 13.7041 96.8589 13.1056 97.0096 12.5149C94.073 14.5725 91.8152 17.6366 90.814 21.3755C90.7214 21.7216 90.6409 22.068 90.5724 22.4143ZM39.1918 88.9757C38.2185 91.2555 37.5042 93.6928 37.5049 95.9351C37.5062 100.054 40.6552 103.392 44.5384 103.392C48.4217 103.392 51.5687 100.054 51.5674 95.9351C51.5668 93.8385 50.7785 91.3554 49.7298 88.9792C47.645 84.2556 44.5312 79.9548 44.5312 79.9548C44.5312 79.9548 41.2707 84.1062 39.1918 88.9757ZM60.9424 95.9351C60.9417 93.6928 61.656 91.2555 62.6293 88.9757C64.7082 84.1062 67.9688 79.9548 67.9688 79.9548C67.9688 79.9548 71.0825 84.2556 73.1673 88.9792C74.216 91.3554 75.0043 93.8385 75.0049 95.9351C75.0062 100.054 71.8592 103.392 67.9759 103.392C64.0927 103.392 60.9437 100.054 60.9424 95.9351ZM52.6661 112.413C51.6928 114.693 50.9785 117.13 50.9792 119.373C50.9804 123.491 54.1295 126.83 58.0127 126.83C61.896 126.83 65.0429 123.491 65.0417 119.373C65.041 117.276 64.2527 114.793 63.204 112.417C61.1193 107.693 58.0055 103.392 58.0055 103.392C58.0055 103.392 54.7449 107.544 52.6661 112.413ZM84.3799 95.9351C84.3792 93.6928 85.0935 91.2555 86.0668 88.9757C88.1457 84.1062 91.4062 79.9548 91.4062 79.9548C91.4062 79.9548 94.52 84.2556 96.6048 88.9792C97.6534 91.3554 98.4418 93.8385 98.4424 95.9351C98.4437 100.054 95.2967 103.392 91.4134 103.392C87.5302 103.392 84.3812 100.054 84.3799 95.9351ZM76.1734 112.413C75.2001 114.693 74.4858 117.13 74.4865 119.373C74.4878 123.491 77.6368 126.83 81.52 126.83C85.4033 126.83 88.5503 123.491 88.549 119.373C88.5483 117.276 87.76 114.793 86.7113 112.417C84.6266 107.693 81.5128 103.392 81.5128 103.392C81.5128 103.392 78.2522 107.544 76.1734 112.413Z" fill="#C2C2C2"/>
</svg>
