<svg width="132" height="119" viewBox="0 0 132 119" fill="none" xmlns="http://www.w3.org/2000/svg">
<path fill-rule="evenodd" clip-rule="evenodd" d="M121.875 67.0867C121.875 77.7406 114.945 86.6794 105.469 89.6912V99.392C120.212 96.1482 131.25 82.9165 131.25 67.0867C131.25 48.8247 116.559 34.0204 98.4372 34.0204C97.5076 34.0204 96.587 34.0594 95.6769 34.1358C88.9524 14.8116 70.6914 0.954834 49.2187 0.954834C22.036 0.954834 0 23.1613 0 50.5543C0 71.2569 12.5865 88.9971 30.4688 96.4278V86.0527C17.935 79.2921 9.375 65.9612 9.375 50.5543C9.375 28.2707 27.2816 10.3298 49.2187 10.3298C66.2035 10.3298 80.7721 21.0847 86.4843 36.283L86.5233 36.2677C87.6067 39.2009 88.3661 42.2957 88.7573 45.5068C91.7129 44.1498 94.9922 43.3954 98.4372 43.3954C111.313 43.3954 121.875 53.9341 121.875 67.0867ZM98.4375 71.2673H51.5625V80.6423H98.4375V71.2673ZM89.0625 90.0173H42.1875V99.3923H89.0625V90.0173ZM51.5625 108.767H98.4375V118.142H51.5625V108.767Z" fill="#C2C2C2"/>
</svg>
