<svg width="132" height="132" viewBox="0 0 132 132" fill="none" xmlns="http://www.w3.org/2000/svg">
<path fill-rule="evenodd" clip-rule="evenodd" d="M0 51.8298C0 72.2802 11.4815 89.95 28.125 98.2862V87.4561C16.9228 80.0263 9.375 66.9664 9.375 51.8298C9.375 28.207 27.7584 9.64233 49.7263 9.64233C68.3619 9.64233 84.4179 23.0019 88.8603 41.4758L88.8744 41.4701C89.5018 44.0333 89.9018 46.6908 90.0508 49.418C92.9715 47.9541 96.2212 47.1424 99.6061 47.1424C111.587 47.1424 121.875 57.3123 121.875 70.5798C121.875 82.5266 113.533 91.9619 103.125 93.7219V103.192C118.945 101.377 131.25 87.4682 131.25 70.5798C131.25 52.458 117.083 37.7674 99.6061 37.7674C98.9318 37.7674 98.2624 37.7892 97.5985 37.8323C91.716 16.1569 72.5107 0.267334 49.7263 0.267334C22.2632 0.267334 0 23.3527 0 51.8298ZM51.5616 96.1551C51.562 97.7301 50.3526 98.7148 49.2175 98.7148C48.0825 98.7148 46.8725 97.7301 46.872 96.1551C46.8714 94.1471 47.6858 91.4096 49.0878 88.3631C49.5576 89.3511 49.9843 90.3313 50.3494 91.2834C51.2652 93.6717 51.5613 95.2925 51.5616 96.1551ZM49.2089 70.5798C49.2089 70.5798 46.4088 74.0029 43.5469 78.8169C40.5548 83.8499 37.4952 90.4032 37.497 96.1551C37.499 102.746 42.7478 108.09 49.2204 108.09C55.6931 108.09 60.9386 102.746 60.9366 96.1551C60.9349 90.9137 57.7299 84.1628 54.6712 78.9131C51.8791 74.121 49.2089 70.5798 49.2089 70.5798ZM82.0409 98.7148C83.176 98.7148 84.3854 97.7301 84.3849 96.1551C84.3847 95.2925 84.0886 93.6717 83.1728 91.2834C82.8077 90.3313 82.381 89.3511 81.9112 88.3631C80.5091 91.4096 79.6947 94.1471 79.6953 96.1551C79.6958 97.7301 80.9058 98.7148 82.0409 98.7148ZM76.3703 78.8169C79.2322 74.0029 82.0323 70.5798 82.0323 70.5798C82.0323 70.5798 84.7024 74.121 87.4946 78.9131C90.5532 84.1628 93.7583 90.9137 93.7599 96.1551C93.7619 102.746 88.5165 108.09 82.0438 108.09C75.5711 108.09 70.3224 102.746 70.3203 96.1551C70.3186 90.4032 73.3782 83.8499 76.3703 78.8169ZM73.744 117.455L65.625 112.767L57.506 117.455V126.83L65.625 131.517L73.744 126.83V117.455ZM93.75 112.767L101.869 117.455V126.83L93.75 131.517L85.631 126.83V117.455L93.75 112.767ZM45.619 117.455L37.5 112.767L29.381 117.455V126.83L37.5 131.517L45.619 126.83V117.455Z" fill="#C2C2C2"/>
</svg>
