<svg width="132" height="132" viewBox="0 0 132 132" fill="none" xmlns="http://www.w3.org/2000/svg">
<path fill-rule="evenodd" clip-rule="evenodd" d="M28.125 98.2862C11.4815 89.95 0 72.2802 0 51.8298C0 23.3527 22.2632 0.267334 49.7263 0.267334C62.8186 0.267334 74.7292 5.51381 83.6093 14.0898C88.8688 3.66353 100.873 -2.00924 112.593 1.13317C114.011 1.51346 115.369 2.00764 116.658 2.60325C111.629 3.41922 107.316 7.12902 105.986 12.3828C105.329 14.9788 105.492 17.5902 106.311 19.9436L106.35 20.0897C106.733 21.4824 107.408 22.7774 108.331 23.888C108.856 24.5203 109.455 25.0846 110.113 25.5697C111.623 26.8864 113.458 27.8776 115.533 28.4035C121.876 30.0113 128.309 26.7256 130.846 20.9214C131.502 24.4878 131.396 28.2526 130.395 31.9885C128.811 37.9047 125.249 42.7621 120.612 46.0393C127.138 52.0499 131.25 60.8169 131.25 70.5798C131.25 83.9399 123.55 95.4351 112.5 100.554V89.679C118.118 85.4845 121.875 78.5978 121.875 70.5798C121.875 57.3123 111.587 47.1424 99.6061 47.1424C96.2212 47.1424 92.9715 47.9541 90.0508 49.418C89.9018 46.6908 89.5018 44.0333 88.8744 41.4701L88.8603 41.4758C84.4179 23.0019 68.3619 9.64233 49.7263 9.64233C27.7584 9.64233 9.375 28.207 9.375 51.8298C9.375 66.9664 16.9228 80.0263 28.125 87.4561V98.2862ZM111.702 40.2497C113.56 39.5392 115.275 38.4826 116.747 37.1364C116.368 37.1483 115.989 37.1493 115.609 37.1393C112.801 37.0655 110.041 36.3926 107.514 35.1657C104.987 33.9387 102.751 32.186 100.955 30.0247C99.1593 27.8634 97.8453 25.3434 97.1011 22.6331C96.3568 19.9228 96.1994 17.0847 96.6394 14.3086C96.7352 13.7041 96.8589 13.1056 97.0096 12.5149C94.073 14.5725 91.8152 17.6366 90.814 21.3755C90.7214 21.7216 90.6409 22.068 90.5724 22.4143C93.6867 27.0552 96.0841 32.252 97.5985 37.8323C98.2624 37.7892 98.9318 37.7674 99.6061 37.7674C103.89 37.7674 107.975 38.6501 111.702 40.2497ZM81.6801 84.5476C80.8928 85.9118 79.3531 86.1596 78.3701 85.5919C77.3872 85.0242 76.8319 83.5664 77.6192 82.2022C78.6229 80.4631 80.6972 78.4999 83.435 76.5629C83.3477 77.6535 83.227 78.7157 83.067 79.7228C82.6655 82.2489 82.1113 83.8005 81.6801 84.5476ZM92.4339 61.2241C92.4339 61.2241 88.2972 62.7879 83.4112 65.5253C78.3031 68.3871 72.3761 72.5317 69.5009 77.5134C66.2061 83.2222 68.0789 90.4744 73.6839 93.7116C79.2889 96.9488 86.5036 94.9452 89.7984 89.2364C92.4184 84.6968 93.0193 77.2479 92.9962 71.1722C92.975 65.626 92.4339 61.2241 92.4339 61.2241ZM50.7293 89.3181C49.942 90.6822 48.4022 90.93 47.4193 90.3623C46.4364 89.7946 45.8811 88.3368 46.6684 86.9726C47.6721 85.2335 49.7464 83.2703 52.4842 81.3334C52.3969 82.424 52.2762 83.4861 52.1161 84.4932C51.7147 87.0194 51.1605 88.571 50.7293 89.3181ZM61.4831 65.9946C61.4831 65.9946 57.3464 67.5583 52.4604 70.2957C47.3523 73.1576 41.4253 77.3022 38.5501 82.2839C35.2553 87.9927 37.1281 95.2449 42.7331 98.482C48.3381 101.719 55.5528 99.7156 58.8476 94.0068C61.4676 89.4672 62.0685 82.0183 62.0453 75.9427C62.0242 70.3965 61.4831 65.9946 61.4831 65.9946ZM88.9368 114.34C89.9197 114.908 91.4594 114.66 92.2468 113.296C92.6779 112.549 93.2322 110.998 93.6336 108.471C93.7936 107.464 93.9143 106.402 94.0017 105.312C91.2639 107.248 89.1895 109.212 88.1858 110.951C87.3985 112.315 87.9538 113.773 88.9368 114.34ZM93.9779 94.2739C98.8638 91.5365 103.001 89.9727 103.001 89.9727C103.001 89.9727 103.542 94.3746 103.563 99.9208C103.586 105.996 102.985 113.445 100.365 117.985C97.0702 123.694 89.8555 125.697 84.2505 122.46C78.6455 119.223 76.7727 111.971 80.0676 106.262C82.9427 101.28 88.8698 97.1357 93.9779 94.2739ZM60.7546 120.805C59.9673 122.169 58.4276 122.417 57.4446 121.849C56.4617 121.282 55.9064 119.824 56.6937 118.46C57.6974 116.721 59.7717 114.757 62.5095 112.82C62.4222 113.911 62.3015 114.973 62.1414 115.98C61.74 118.506 61.1858 120.058 60.7546 120.805ZM71.5084 97.4816C71.5084 97.4816 67.3717 99.0453 62.4857 101.783C57.3776 104.645 51.4506 108.789 48.5754 113.771C45.2806 119.48 47.1534 126.732 52.7584 129.969C58.3634 133.206 65.5781 131.203 68.8729 125.494C71.4929 120.954 72.0938 113.505 72.0706 107.43C72.0495 101.883 71.5084 97.4816 71.5084 97.4816Z" fill="#C2C2C2"/>
</svg>
