<svg width="132" height="132" viewBox="0 0 132 132" fill="none" xmlns="http://www.w3.org/2000/svg">
<path fill-rule="evenodd" clip-rule="evenodd" d="M0 51.8298C0 72.2802 11.4815 89.95 28.125 98.2862V87.4561C16.9228 80.0263 9.375 66.9664 9.375 51.8298C9.375 28.207 27.7584 9.64233 49.7263 9.64233C68.3619 9.64233 84.4179 23.0019 88.8603 41.4758L88.8744 41.4701C89.5018 44.0333 89.9018 46.6908 90.0508 49.418C92.9715 47.9541 96.2212 47.1424 99.6061 47.1424C111.587 47.1424 121.875 57.3123 121.875 70.5798C121.875 78.5978 118.118 85.4845 112.5 89.679V100.554C123.55 95.4351 131.25 83.9399 131.25 70.5798C131.25 52.458 117.083 37.7674 99.6061 37.7674C98.9318 37.7674 98.2624 37.7892 97.5985 37.8323C91.716 16.1569 72.5107 0.267334 49.7263 0.267334C22.2632 0.267334 0 23.3527 0 51.8298ZM78.3701 85.5921C79.3531 86.1597 80.8928 85.9119 81.6801 84.5478C82.1113 83.8007 82.6655 82.2491 83.067 79.723C83.227 78.7159 83.3477 77.6537 83.435 76.5631C80.6972 78.5001 78.6229 80.4632 77.6192 82.2023C76.8319 83.5665 77.3872 85.0244 78.3701 85.5921ZM83.4112 65.5254C88.2972 62.788 92.4339 61.2243 92.4339 61.2243C92.4339 61.2243 92.975 65.6262 92.9962 71.1724C93.0193 77.248 92.4184 84.6969 89.7984 89.2365C86.5036 94.9453 79.2889 96.9489 73.6839 93.7117C68.0789 90.4746 66.2061 83.2224 69.5009 77.5136C72.3761 72.5319 78.3031 68.3873 83.4112 65.5254ZM47.4193 90.3625C48.4022 90.9302 49.942 90.6824 50.7293 89.3182C51.1605 88.5711 51.7147 87.0195 52.1161 84.4934C52.2762 83.4863 52.3969 82.4241 52.4842 81.3335C49.7464 83.2705 47.6721 85.2337 46.6684 86.9728C45.8811 88.337 46.4364 89.7948 47.4193 90.3625ZM52.4604 70.2959C57.3464 67.5585 61.4831 65.9947 61.4831 65.9947C61.4831 65.9947 62.0242 70.3966 62.0453 75.9428C62.0685 82.0185 61.4676 89.4674 58.8476 94.007C55.5528 99.7157 48.3381 101.719 42.7331 98.4822C37.1281 95.245 35.2553 87.9929 38.5501 82.284C41.4253 77.3024 47.3523 73.1577 52.4604 70.2959ZM92.2468 113.296C91.4594 114.661 89.9197 114.908 88.9368 114.341C87.9538 113.773 87.3985 112.315 88.1858 110.951C89.1895 109.212 91.2639 107.249 94.0017 105.312C93.9143 106.402 93.7936 107.464 93.6336 108.472C93.2322 110.998 92.6779 112.549 92.2468 113.296ZM103.001 89.9729C103.001 89.9729 98.8638 91.5366 93.9779 94.274C88.8698 97.1358 82.9427 101.28 80.0676 106.262C76.7727 111.971 78.6455 119.223 84.2505 122.46C89.8555 125.698 97.0702 123.694 100.365 117.985C102.985 113.446 103.586 105.997 103.563 99.921C103.542 94.3748 103.001 89.9729 103.001 89.9729ZM57.4446 121.849C58.4276 122.417 59.9673 122.169 60.7546 120.805C61.1858 120.058 61.74 118.507 62.1414 115.98C62.3015 114.973 62.4222 113.911 62.5095 112.821C59.7717 114.757 57.6974 116.721 56.6937 118.46C55.9064 119.824 56.4617 121.282 57.4446 121.849ZM62.4857 101.783C67.3717 99.0455 71.5084 97.4817 71.5084 97.4817C71.5084 97.4817 72.0495 101.884 72.0706 107.43C72.0938 113.505 71.4929 120.954 68.8729 125.494C65.5781 131.203 58.3634 133.206 52.7584 129.969C47.1534 126.732 45.2806 119.48 48.5754 113.771C51.4506 108.789 57.3776 104.645 62.4857 101.783Z" fill="#C2C2C2"/>
</svg>
