<svg width="85" height="114" viewBox="0 0 85 114" fill="none" xmlns="http://www.w3.org/2000/svg">
<path fill-rule="evenodd" clip-rule="evenodd" d="M75.4375 77.3476C75.4375 90.5536 62.2503 103.767 42.625 103.767C22.9997 103.767 9.8125 90.5536 9.8125 77.3476C9.8125 63.6498 18.7216 46.5911 29.193 31.7406C33.9259 25.0285 38.676 19.1818 42.3905 14.8627C46.1757 19.5193 51.0872 25.8582 55.981 33.012C61.0835 40.4708 66.0463 48.6415 69.7031 56.5935C73.427 64.6913 75.4375 71.8014 75.4375 77.3476ZM0.4375 77.3476C0.4375 51.8626 24.4901 21.1312 36.2724 7.60624C40.0942 3.21907 42.625 0.642334 42.625 0.642334C42.625 0.642334 45.0495 3.3225 48.7362 7.81208C60.4277 22.0501 84.8125 54.4863 84.8125 77.3476C84.8125 97.1165 65.9245 113.142 42.625 113.142C19.3255 113.142 0.4375 97.1165 0.4375 77.3476ZM21.5235 61.5798H31.609C29.7114 65.9108 28.5625 70.018 28.5625 73.5121C28.5625 78.8773 33.8108 85.0173 42.625 85.0173V94.3923C29.6808 94.3923 19.1875 85.0439 19.1875 73.5121C19.1875 69.664 20.0828 65.6109 21.5235 61.5798Z" fill="#C2C2C2"/>
</svg>
