<svg width="133" height="132" viewBox="0 0 133 132" fill="none" xmlns="http://www.w3.org/2000/svg">
<path fill-rule="evenodd" clip-rule="evenodd" d="M104.637 53.2924C111.662 53.0639 118.333 50.2092 123.314 45.3118C125.882 42.7532 127.943 39.6991 129.338 36.3077C131.225 41.749 132.25 47.5875 132.25 53.663C132.25 77.5711 116.386 97.8093 94.5168 104.614C94.6867 105.753 94.7748 106.918 94.7748 108.104C94.7748 121.055 84.276 131.554 71.3251 131.554C70.887 131.554 70.4517 131.542 70.0195 131.518H36.1796V131.511L36.1501 131.511C16.7236 131.511 0.975403 115.912 0.975403 96.67C0.975403 81.1595 11.2075 68.0162 25.3504 63.5015C24.7508 60.3126 24.4372 57.0241 24.4372 53.663C24.4372 24.1734 48.5719 0.267334 78.3435 0.267334C82.5493 0.267334 86.6427 0.744436 90.5714 1.64698C87.2832 3.35851 84.3843 5.70075 82.0396 8.51064C77.6249 13.9549 75.46 20.8613 75.9914 27.833C76.5313 34.9161 79.8128 41.5191 85.1505 46.2632C90.4883 51.0072 97.4697 53.5256 104.637 53.2924ZM34.5847 61.8624C35.1036 61.8399 35.6255 61.8285 36.1501 61.8285C51.3491 61.8285 64.2965 71.3772 69.2118 84.7487C69.9079 84.6865 70.6128 84.6547 71.3251 84.6547C79.762 84.6547 87.1583 89.1104 91.2892 95.7969C108.409 90.6669 121.113 75.6272 122.706 57.5198C117.36 60.6546 111.26 62.4426 104.948 62.648C95.345 62.9604 85.9912 59.5862 78.8396 53.2301C71.688 46.8739 67.2915 38.0271 66.5682 28.537C66.0912 22.28 67.2353 16.0623 69.8205 10.4464C49.2498 14.3828 33.8122 32.2984 33.8122 53.663C33.8122 56.4633 34.0775 59.2043 34.5847 61.8624ZM36.273 122.136L36.1501 122.136C21.817 122.136 10.3504 110.651 10.3504 96.67C10.3504 82.6892 21.817 71.2035 36.1501 71.2035C47.2772 71.2035 56.6768 78.1258 60.325 87.7638L60.3491 87.7511C61.3937 90.5281 61.9646 93.5336 61.9646 96.6711C61.9646 96.9849 61.9589 97.2974 61.9476 97.6085C64.437 95.3828 67.723 94.0297 71.3251 94.0297C79.0983 94.0297 85.3998 100.331 85.3998 108.104C85.3998 115.878 79.0983 122.179 71.3251 122.179H71.3122V122.143H70.3144L70.2168 122.136H52.535L52.5404 122.143H52.506L52.5006 122.136H36.273Z" fill="#C2C2C2"/>
</svg>
