<svg width="132" height="132" viewBox="0 0 132 132" fill="none" xmlns="http://www.w3.org/2000/svg">
<path fill-rule="evenodd" clip-rule="evenodd" d="M60.9375 14.3298V0.267334H70.3125V14.3298H60.9375ZM97.7902 93.1917C101.123 97.24 103.125 102.426 103.125 108.079C103.125 121.023 92.6318 131.517 79.6876 131.517L79.5157 131.516H44.7129V131.516L44.5313 131.516C25.115 131.516 9.375 115.776 9.375 96.36C9.375 84.8306 14.9249 74.5975 23.4988 68.1864C23.4581 67.4269 23.4375 66.662 23.4375 65.8923C23.4375 42.5928 42.3255 23.7048 65.625 23.7048C88.9245 23.7048 107.812 42.5928 107.812 65.8923C107.812 76.3035 104.041 85.8338 97.7902 93.1917ZM90.5073 87.2832C87.2705 85.5957 83.5904 84.6417 79.6876 84.6417C75.7243 84.6417 71.9908 85.6254 68.718 87.362C69.7616 90.1637 70.3321 93.1957 70.3321 96.3611C70.3321 96.7786 70.3222 97.1938 70.3025 97.6065C72.7916 95.3744 76.0811 94.0167 79.6876 94.0167C87.4541 94.0167 93.7501 100.313 93.7501 108.079C93.7501 115.846 87.4541 122.142 79.6875 122.142V122.141H79.5545L79.3743 122.138H44.9218C44.7918 122.14 44.6617 122.141 44.5313 122.141C30.2927 122.141 18.75 110.599 18.75 96.36C18.75 82.1214 30.2927 70.5787 44.5313 70.5787C55.6081 70.5787 65.0533 77.5642 68.7019 87.3702C71.4306 85.9197 74.4799 84.9927 77.716 84.7232C72.913 71.0258 59.8692 61.2037 44.5313 61.2037C40.464 61.2037 36.558 61.8944 32.9242 63.1649C34.3104 46.3191 48.4216 33.0798 65.625 33.0798C83.7468 33.0798 98.4375 47.7705 98.4375 65.8923C98.4375 74.0646 95.4499 81.5391 90.5073 87.2832ZM131.25 61.2048H117.188V70.5798H131.25V61.2048ZM107.936 36.0516L120.114 29.0203L124.802 37.1393L112.623 44.1706L107.936 36.0516ZM94.3783 6.71608L87.347 18.8946L95.466 23.5821L102.497 11.4036L94.3783 6.71608ZM35.7843 23.5821L28.753 11.4036L36.872 6.71608L43.9032 18.8946L35.7843 23.5821ZM6.44846 37.1393L18.6269 44.1706L23.3144 36.0516L11.136 29.0203L6.44846 37.1393ZM0 61.2048H14.0625V70.5798H0V61.2048ZM107.936 95.7331L120.114 102.764L124.802 94.6453L112.623 87.6141L107.936 95.7331Z" fill="#C2C2C2"/>
</svg>
