<svg width="132" height="132" viewBox="0 0 132 132" fill="none" xmlns="http://www.w3.org/2000/svg">
<path fill-rule="evenodd" clip-rule="evenodd" d="M131.25 70.5798C131.25 87.4682 118.945 101.377 103.125 103.192V93.7219C113.533 91.9619 121.875 82.5266 121.875 70.5798C121.875 57.3123 111.587 47.1424 99.6061 47.1424C96.2212 47.1424 92.9715 47.9541 90.0508 49.418C89.9018 46.6908 89.5018 44.0333 88.8744 41.4701L88.8603 41.4758C84.4179 23.0019 68.3619 9.64233 49.7263 9.64233C27.7584 9.64233 9.375 28.207 9.375 51.8298C9.375 70.888 21.3403 86.6539 37.5 92.0353V101.822C15.9486 96.1726 0 75.9325 0 51.8298C0 23.3527 22.2632 0.267334 49.7263 0.267334C59.3566 0.267334 68.3474 3.10596 75.9631 8.02032C81.8064 3.17798 89.3086 0.267334 97.4905 0.267334C116.136 0.267334 131.25 15.3821 131.25 34.0272C131.25 40.7584 129.28 47.0294 125.886 52.2953C129.273 57.5201 131.25 63.8106 131.25 70.5798ZM119.318 44.9099C120.955 41.634 121.875 37.9381 121.875 34.0272C121.875 20.5598 110.958 9.64233 97.4905 9.64233C92.3029 9.64233 87.4936 11.2623 83.5409 14.0239C90.1491 20.3819 95.0876 28.58 97.5985 37.8323C98.2624 37.7892 98.9318 37.7674 99.6061 37.7674C107.059 37.7674 113.911 40.4393 119.318 44.9099ZM56.2599 119.593C56.2604 121.168 55.051 122.152 53.9159 122.152C52.7808 122.152 51.5708 121.168 51.5703 119.593C51.5697 117.585 52.3841 114.847 53.7862 111.801C54.256 112.789 54.6827 113.769 55.0478 114.721C55.9636 117.109 56.2597 118.73 56.2599 119.593ZM53.9073 94.0173C53.9073 94.0173 51.1072 97.4404 48.2453 102.254C45.2532 107.287 42.1936 113.841 42.1953 119.593C42.1974 126.184 47.4461 131.527 53.9188 131.527C60.3915 131.527 65.6369 126.184 65.6349 119.593C65.6333 114.351 62.4282 107.6 59.3696 102.351C56.5774 97.5585 53.9073 94.0173 53.9073 94.0173ZM82.0409 108.09C83.176 108.09 84.3854 107.105 84.3849 105.53C84.3847 104.667 84.0886 103.047 83.1728 100.658C82.8077 99.7063 82.381 98.7261 81.9112 97.7381C80.5091 100.785 79.6947 103.522 79.6953 105.53C79.6958 107.105 80.9058 108.09 82.0409 108.09ZM76.3703 88.1919C79.2322 83.3779 82.0323 79.9548 82.0323 79.9548C82.0323 79.9548 84.7024 83.496 87.4946 88.2881C90.5532 93.5378 93.7583 100.289 93.7599 105.53C93.7619 112.121 88.5165 117.465 82.0438 117.465C75.5711 117.465 70.3224 112.121 70.3203 105.53C70.3186 99.7782 73.3782 93.2249 76.3703 88.1919Z" fill="#C2C2C2"/>
</svg>
