<svg width="132" height="132" viewBox="0 0 132 132" fill="none" xmlns="http://www.w3.org/2000/svg">
<path fill-rule="evenodd" clip-rule="evenodd" d="M103.125 103.192C118.945 101.377 131.25 87.4682 131.25 70.5798C131.25 52.458 117.083 37.7674 99.6061 37.7674C98.9318 37.7674 98.2624 37.7892 97.5985 37.8323C91.716 16.1569 72.5107 0.267334 49.7263 0.267334C22.2632 0.267334 0 23.3527 0 51.8298C0 75.9325 15.9486 96.1726 37.5 101.822V92.0353C21.3403 86.6539 9.375 70.888 9.375 51.8298C9.375 28.207 27.7584 9.64233 49.7263 9.64233C68.3619 9.64233 84.4179 23.0019 88.8603 41.4758L88.8744 41.4701C89.5018 44.0333 89.9018 46.6908 90.0508 49.418C92.9715 47.9541 96.2212 47.1424 99.6061 47.1424C111.587 47.1424 121.875 57.3123 121.875 70.5798C121.875 82.5266 113.533 91.9619 103.125 93.7219V103.192ZM53.9159 122.152C55.051 122.152 56.2604 121.168 56.2599 119.593C56.2597 118.73 55.9636 117.109 55.0478 114.721C54.6827 113.769 54.256 112.789 53.7862 111.801C52.3841 114.847 51.5697 117.585 51.5703 119.593C51.5708 121.168 52.7808 122.152 53.9159 122.152ZM48.2453 102.254C51.1072 97.4404 53.9073 94.0173 53.9073 94.0173C53.9073 94.0173 56.5774 97.5585 59.3696 102.351C62.4282 107.6 65.6333 114.351 65.6349 119.593C65.6369 126.184 60.3915 131.527 53.9188 131.527C47.4461 131.527 42.1974 126.184 42.1953 119.593C42.1936 113.841 45.2532 107.287 48.2453 102.254ZM84.3849 105.53C84.3854 107.105 83.176 108.09 82.0409 108.09C80.9058 108.09 79.6958 107.105 79.6953 105.53C79.6947 103.522 80.5091 100.785 81.9112 97.7381C82.381 98.7261 82.8077 99.7063 83.1728 100.658C84.0886 103.047 84.3847 104.667 84.3849 105.53ZM82.0323 79.9548C82.0323 79.9548 79.2322 83.3779 76.3703 88.1919C73.3782 93.2249 70.3186 99.7782 70.3203 105.53C70.3224 112.121 75.5711 117.465 82.0438 117.465C88.5165 117.465 93.7619 112.121 93.7599 105.53C93.7583 100.289 90.5532 93.5378 87.4946 88.2881C84.7024 83.496 82.0323 79.9548 82.0323 79.9548Z" fill="#C2C2C2"/>
</svg>
