<svg width="132" height="132" viewBox="0 0 132 132" fill="none" xmlns="http://www.w3.org/2000/svg">
<path fill-rule="evenodd" clip-rule="evenodd" d="M131.25 70.5798C131.25 87.4682 118.945 101.377 103.125 103.192V93.7219C113.533 91.9619 121.875 82.5266 121.875 70.5798C121.875 57.3123 111.587 47.1424 99.6061 47.1424C96.2212 47.1424 92.9715 47.9541 90.0508 49.418C89.9018 46.6908 89.5018 44.0333 88.8744 41.4701L88.8603 41.4758C84.4179 23.0019 68.3619 9.64233 49.7263 9.64233C27.7584 9.64233 9.375 28.207 9.375 51.8298C9.375 70.888 21.3403 86.6539 37.5 92.0353V101.822C15.9486 96.1726 0 75.9325 0 51.8298C0 23.3527 22.2632 0.267334 49.7263 0.267334C62.8186 0.267334 74.7292 5.51381 83.6093 14.0898C88.8688 3.66353 100.873 -2.00924 112.593 1.13317C114.011 1.51346 115.369 2.00764 116.658 2.60325C111.629 3.41922 107.316 7.12902 105.986 12.3828C105.329 14.9788 105.492 17.5902 106.311 19.9436L106.35 20.0897C106.733 21.4824 107.408 22.7774 108.331 23.888C108.856 24.5203 109.455 25.0846 110.113 25.5697C111.623 26.8864 113.458 27.8776 115.533 28.4035C121.876 30.0113 128.309 26.7256 130.846 20.9214C131.502 24.4878 131.396 28.2526 130.395 31.9885C128.811 37.9047 125.249 42.7621 120.612 46.0393C127.138 52.0499 131.25 60.8169 131.25 70.5798ZM111.702 40.2497C113.56 39.5392 115.275 38.4826 116.747 37.1364C116.368 37.1483 115.989 37.1493 115.609 37.1393C112.801 37.0655 110.041 36.3926 107.514 35.1657C104.987 33.9387 102.751 32.186 100.955 30.0247C99.1593 27.8634 97.8453 25.3434 97.1011 22.6331C96.3568 19.9228 96.1994 17.0847 96.6394 14.3086C96.7352 13.7041 96.8589 13.1056 97.0096 12.5149C94.073 14.5725 91.8152 17.6366 90.814 21.3755C90.7214 21.7216 90.6409 22.068 90.5724 22.4143C93.6867 27.0552 96.0841 32.252 97.5985 37.8323C98.2624 37.7892 98.9318 37.7674 99.6061 37.7674C103.89 37.7674 107.975 38.6501 111.702 40.2497ZM56.2599 119.592C56.2604 121.168 55.051 122.152 53.9159 122.152C52.7808 122.152 51.5708 121.168 51.5703 119.592C51.5697 117.584 52.3841 114.847 53.7862 111.8C54.256 112.789 54.6827 113.769 55.0478 114.721C55.9636 117.109 56.2597 118.73 56.2599 119.592ZM53.9073 94.0172C53.9073 94.0172 51.1072 97.4402 48.2453 102.254C45.2532 107.287 42.1936 113.841 42.1953 119.592C42.1974 126.184 47.4461 131.527 53.9188 131.527C60.3915 131.527 65.6369 126.184 65.6349 119.592C65.6333 114.351 62.4282 107.6 59.3696 102.351C56.5774 97.5584 53.9073 94.0172 53.9073 94.0172ZM82.0409 108.09C83.176 108.09 84.3854 107.105 84.3849 105.53C84.3847 104.667 84.0886 103.047 83.1728 100.658C82.8077 99.7062 82.381 98.726 81.9112 97.7379C80.5091 100.785 79.6947 103.522 79.6953 105.53C79.6958 107.105 80.9058 108.09 82.0409 108.09ZM76.3703 88.1918C79.2322 83.3777 82.0323 79.9547 82.0323 79.9547C82.0323 79.9547 84.7024 83.4959 87.4946 88.288C90.5532 93.5377 93.7583 100.289 93.7599 105.53C93.7619 112.121 88.5165 117.465 82.0438 117.465C75.5711 117.465 70.3224 112.121 70.3203 105.53C70.3186 99.7781 73.3782 93.2247 76.3703 88.1918Z" fill="#C2C2C2"/>
</svg>
