<svg width="132" height="132" viewBox="0 0 132 132" fill="none" xmlns="http://www.w3.org/2000/svg">
<path fill-rule="evenodd" clip-rule="evenodd" d="M111.867 65.7686C117.025 60.7954 120.527 54.2279 121.559 46.9463C121.21 47.1016 120.858 47.2503 120.504 47.3923C120.214 47.5086 119.922 47.6203 119.628 47.7275C115.81 49.1215 111.707 49.7472 107.569 49.5257L107.482 49.521C100.133 49.1069 93.1982 46.0495 88.0133 40.9366L87.9767 40.9005C83.2794 36.2524 80.3289 30.2132 79.5624 23.7637C79.4789 23.061 79.4213 22.3534 79.3902 21.6422C79.2204 17.7568 79.8478 13.9133 81.1987 10.3253C70.4175 12.4937 61.6102 19.6391 57.2648 29.0779C75.1642 32.1614 89.8107 45.3613 95.677 62.8869C96.5871 62.8075 97.5078 62.767 98.4374 62.767C103.222 62.767 107.768 63.8399 111.867 65.7686ZM47.3995 28.4269C53.3126 12.0233 69.3038 0.267334 88.1033 0.267334C92.6801 0.267334 97.0905 0.964133 101.23 2.25516C97.4203 3.8264 94.2042 6.49625 91.9997 9.85704L91.9256 9.8489C89.7563 13.24 88.6708 17.2124 88.8474 21.251C88.8674 21.708 88.9034 22.1629 88.9551 22.6149C89.4606 27.0322 91.4665 31.1722 94.672 34.3604L94.7085 34.3966C98.2642 37.9151 103.032 40.0139 108.082 40.2841L108.168 40.2885C111.21 40.4386 114.222 39.9187 116.991 38.7958C118.792 38.0655 120.49 37.0802 122.028 35.8584L122.034 35.8661C124.874 33.5996 127.074 30.5991 128.327 27.162C130.214 31.9034 131.25 37.0609 131.25 42.4548C131.25 53.4943 126.913 63.5435 119.815 71.0624C126.816 77.3666 131.25 86.7118 131.25 97.142C131.25 116.127 116.559 131.517 98.4374 131.517L98.4375 131.517H49.3513V131.517L49.2187 131.517C22.036 131.517 0 108.432 0 79.9548C0 52.1157 21.0596 29.4295 47.3995 28.4269ZM49.4691 122.142L49.2187 122.142C27.6199 122.142 9.375 103.67 9.375 79.9548C9.375 56.2395 27.6199 37.7673 49.2187 37.7673C66.029 37.7673 80.8076 48.9567 86.5343 65.0986L86.5235 65.103C87.5739 68.0597 88.3199 71.1742 88.7208 74.4038C91.7117 72.9457 95.0135 72.142 98.4374 72.142C110.975 72.142 121.875 82.9191 121.875 97.142C121.875 111.365 110.975 122.142 98.4374 122.142L98.4375 122.142H49.4691V122.142Z" fill="#C2C2C2"/>
</svg>
