<svg width="132" height="132" viewBox="0 0 132 132" fill="none" xmlns="http://www.w3.org/2000/svg">
<path fill-rule="evenodd" clip-rule="evenodd" d="M73.2941 0.267334V11.682H82.6691V0.267334H73.2941ZM131.25 48.8483H119.835L119.835 58.2233H131.25V48.8483ZM111.884 28.5494L121.77 22.8421L126.457 30.961L116.572 36.6684L111.884 28.5494ZM100.557 5.06007L94.8492 14.9455L102.968 19.633L108.676 9.74757L100.557 5.06007ZM52.9952 19.633L47.2878 9.74757L55.4068 5.06007L61.1142 14.9455L52.9952 19.633ZM131.25 97.533C131.25 83.3463 122.857 71.1899 110.933 66.0997C112.411 62.1936 113.22 57.9588 113.22 53.5351C113.22 33.9222 97.3204 18.0228 77.7075 18.0228C67.3083 18.0228 57.9531 22.4927 51.4584 29.6161C50.716 29.5816 49.9693 29.5642 49.2188 29.5642C22.036 29.5642 0 52.3872 0 80.5408C0 108.694 22.036 131.517 49.2188 131.517C49.5274 131.517 49.8354 131.514 50.1427 131.509V131.517H98.4134L98.4375 131.517L98.4615 131.517H99.569V131.498C117.167 130.88 131.25 115.91 131.25 97.533ZM103.845 53.5351C103.845 57.1494 103.111 60.5924 101.785 63.7232C100.684 63.6078 99.5675 63.5486 98.4375 63.5486C97.5078 63.5486 96.5872 63.5886 95.6772 63.6671C90.4903 48.3471 78.439 36.3705 63.3442 31.6947C67.466 28.9785 72.4021 27.3978 77.7075 27.3978C92.1428 27.3978 103.845 39.0999 103.845 53.5351ZM49.2188 122.142L49.4113 122.142V122.142L50.1427 122.142L98.4248 122.142H98.4375L98.4575 122.142C111.086 122.131 121.875 111.43 121.875 97.533C121.875 83.6288 111.074 72.9236 98.4375 72.9236C95.0148 72.9236 91.7269 73.7089 88.7518 75.1304C88.3472 71.9107 87.5858 68.8071 86.5101 65.8635L86.5203 65.8594C80.7981 49.9992 66.0809 38.9392 49.2188 38.9392C27.521 38.9392 9.375 57.2521 9.375 80.5408C9.375 103.829 27.521 122.142 49.2188 122.142Z" fill="#C2C2C2"/>
</svg>
