<svg width="132" height="132" viewBox="0 0 132 132" fill="none" xmlns="http://www.w3.org/2000/svg">
<path fill-rule="evenodd" clip-rule="evenodd" d="M32.8125 100.333C13.6759 93.1563 0 74.1491 0 51.8298C0 23.3527 22.2632 0.267334 49.7263 0.267334C72.5107 0.267334 91.716 16.1569 97.5985 37.8323C98.2624 37.7892 98.9318 37.7674 99.6061 37.7674C117.083 37.7674 131.25 52.458 131.25 70.5798C131.25 87.4682 118.945 101.377 103.125 103.192V93.7219C113.533 91.9619 121.875 82.5266 121.875 70.5798C121.875 57.3123 111.587 47.1424 99.6061 47.1424C96.2212 47.1424 92.9715 47.9541 90.0508 49.418C89.9018 46.6908 89.5018 44.0333 88.8744 41.4701L88.8603 41.4758C84.4179 23.0019 68.3619 9.64233 49.7263 9.64233C27.7584 9.64233 9.375 28.207 9.375 51.8298C9.375 68.9934 19.0795 83.4867 32.8125 90.1294V100.333ZM56.25 75.2673L52.7647 77.7069L53.5041 81.8965L49.3146 81.1571L46.875 84.6423L44.4354 81.1571L40.2459 81.8965L40.9853 77.7069L37.5 75.2673L40.9853 72.8277L40.2459 68.6382L44.4354 69.3776L46.875 65.8923L49.3146 69.3776L53.5041 68.6382L52.7647 72.8277L56.25 75.2673ZM71.5147 91.7694L75 89.3298L71.5147 86.8902L72.2541 82.7007L68.0646 83.4401L65.625 79.9548L63.1854 83.4401L58.9959 82.7007L59.7353 86.8902L56.25 89.3298L59.7353 91.7694L58.9959 95.959L63.1854 95.2196L65.625 98.7048L68.0646 95.2196L72.2541 95.959L71.5147 91.7694ZM75 61.2048L71.5147 63.6444L72.2541 67.834L68.0646 67.0946L65.625 70.5798L63.1854 67.0946L58.9959 67.834L59.7353 63.6444L56.25 61.2048L59.7353 58.7652L58.9959 54.5757L63.1854 55.3151L65.625 51.8298L68.0646 55.3151L72.2541 54.5757L71.5147 58.7652L75 61.2048ZM90.2647 77.7069L93.75 75.2673L90.2647 72.8277L91.0041 68.6382L86.8146 69.3776L84.375 65.8923L81.9354 69.3776L77.7459 68.6382L78.4853 72.8277L75 75.2673L78.4853 77.7069L77.7459 81.8965L81.9354 81.1571L84.375 84.6423L86.8146 81.1571L91.0041 81.8965L90.2647 77.7069ZM49.2284 122.152C50.3635 122.152 51.5729 121.168 51.5724 119.593C51.5722 118.73 51.2761 117.109 50.3603 114.721C49.9952 113.769 49.5685 112.789 49.0987 111.801C47.6966 114.847 46.8822 117.585 46.8828 119.593C46.8833 121.168 48.0933 122.152 49.2284 122.152ZM43.5578 102.254C46.4197 97.4404 49.2198 94.0173 49.2198 94.0173C49.2198 94.0173 51.8899 97.5585 54.6821 102.351C57.7407 107.6 60.9458 114.351 60.9474 119.593C60.9494 126.184 55.704 131.527 49.2313 131.527C42.7586 131.527 37.5099 126.184 37.5078 119.593C37.5061 113.841 40.5657 107.287 43.5578 102.254ZM84.3849 119.593C84.3854 121.168 83.176 122.152 82.0409 122.152C80.9058 122.152 79.6958 121.168 79.6953 119.593C79.6947 117.585 80.5091 114.847 81.9112 111.801C82.381 112.789 82.8077 113.769 83.1728 114.721C84.0886 117.109 84.3847 118.73 84.3849 119.593ZM82.0323 94.0173C82.0323 94.0173 79.2322 97.4404 76.3703 102.254C73.3782 107.287 70.3186 113.841 70.3203 119.593C70.3224 126.184 75.5711 131.527 82.0438 131.527C88.5165 131.527 93.7619 126.184 93.7599 119.593C93.7583 114.351 90.5532 107.6 87.4946 102.351C84.7024 97.5585 82.0323 94.0173 82.0323 94.0173Z" fill="#C2C2C2"/>
</svg>
