<svg width="113" height="114" viewBox="0 0 113 114" fill="none" xmlns="http://www.w3.org/2000/svg">
<path fill-rule="evenodd" clip-rule="evenodd" d="M47.2241 56.8979L23.2547 70.9174L4.25491 62.1959L0.354675 70.7756L13.3209 76.7275L6.18878 80.899L10.8308 89.0441L17.9617 84.8733L16.5669 99.2226L25.8515 100.091L27.8955 79.0632L51.8761 65.0371V93.2337L34.9077 105.549L40.4145 113.137L51.8761 104.818V113.142H61.2511V104.817L72.7133 113.137L78.2201 105.549L61.2511 93.2333V65.1022L85.2853 79.1595L87.3295 100.189L96.6141 99.3212L95.2191 84.9697L102.352 89.1414L106.994 80.9963L99.8621 76.8252L112.826 70.8742L108.926 62.2945L89.9283 71.015L65.792 56.8979L89.8539 42.8244L108.977 51.6025L112.877 43.0228L99.7877 37.0142L107.003 32.7941L102.361 24.649L95.2837 28.7884L96.6652 14.5758L87.3806 13.7078L85.3499 34.5986L61.2511 48.6937V20.6465L78.3291 8.25141L72.8223 0.664175L61.2511 9.06245V0.642334H51.8761V8.90385L40.5235 0.664175L35.0167 8.25141L51.8761 20.4879V48.7587L27.9691 34.7758L25.9117 13.6103L16.6271 14.4783L18.0354 28.9657L10.8214 24.7463L6.17938 32.8914L13.2565 37.0307L0.414918 42.9253L4.31515 51.5051L23.1902 42.8408L47.2241 56.8979Z" fill="#C2C2C2"/>
</svg>
