<svg width="132" height="132" viewBox="0 0 132 132" fill="none" xmlns="http://www.w3.org/2000/svg">
<path fill-rule="evenodd" clip-rule="evenodd" d="M60.9375 14.3298V0.267334H70.3125V14.3298H60.9375ZM87.347 18.8946L94.3783 6.71608L102.497 11.4036L95.466 23.5821L87.347 18.8946ZM65.625 98.7048C83.7468 98.7048 98.4375 84.0142 98.4375 65.8923C98.4375 47.7705 83.7468 33.0798 65.625 33.0798C47.5032 33.0798 32.8125 47.7705 32.8125 65.8923C32.8125 84.0142 47.5032 98.7048 65.625 98.7048ZM65.625 108.08C88.9245 108.08 107.812 89.1918 107.812 65.8923C107.812 42.5928 88.9245 23.7048 65.625 23.7048C42.3255 23.7048 23.4375 42.5928 23.4375 65.8923C23.4375 89.1918 42.3255 108.08 65.625 108.08ZM117.188 61.2048H131.25V70.5798H117.188V61.2048ZM120.114 29.0203L107.936 36.0516L112.623 44.1706L124.802 37.1393L120.114 29.0203ZM28.753 11.4036L35.7843 23.5821L43.9032 18.8946L36.872 6.71608L28.753 11.4036ZM18.6269 44.1706L6.44846 37.1393L11.136 29.0203L23.3144 36.0516L18.6269 44.1706ZM60.9375 117.455V131.517H70.3125V117.455H60.9375ZM14.0625 61.2048H0V70.5798H14.0625V61.2048ZM6.44821 94.6453L18.6267 87.6141L23.3142 95.7331L11.1357 102.764L6.44821 94.6453ZM35.7845 108.203L28.7533 120.382L36.8723 125.069L43.9035 112.891L35.7845 108.203ZM94.378 125.069L87.3468 112.891L95.4657 108.203L102.497 120.382L94.378 125.069ZM107.936 95.7331L120.114 102.764L124.802 94.6453L112.623 87.6141L107.936 95.7331Z" fill="#C2C2C2"/>
</svg>
