<svg width="132" height="130" viewBox="0 0 132 130" fill="none" xmlns="http://www.w3.org/2000/svg">
<path fill-rule="evenodd" clip-rule="evenodd" d="M37.5 101.822C15.9486 96.1726 0 75.9325 0 51.8298C0 23.3527 22.2632 0.267334 49.7263 0.267334C60.4933 0.267334 70.4609 3.81562 78.6011 9.84601C84.1574 3.94884 92.0394 0.267334 100.781 0.267334C117.609 0.267334 131.25 13.9087 131.25 30.7361C131.25 38.0829 128.65 44.8224 124.319 50.0844C128.656 55.7 131.25 62.8258 131.25 70.5798C131.25 88.7016 117.083 103.392 99.6061 103.392C99.2148 103.392 98.8253 103.385 98.4375 103.37V94.0173H99.8576V94.0157C111.731 93.8746 121.875 83.7543 121.875 70.5798C121.875 57.3123 111.587 47.1424 99.6061 47.1424C96.2212 47.1424 92.9715 47.9541 90.0508 49.418C89.9018 46.6908 89.5018 44.0333 88.8744 41.4701L88.8603 41.4758C84.4179 23.0019 68.3619 9.64233 49.7263 9.64233C27.7584 9.64233 9.375 28.207 9.375 51.8298C9.375 70.888 21.3403 86.6539 37.5 92.0353V101.822ZM117.543 43.544C120.26 39.9929 121.875 35.5531 121.875 30.7361C121.875 19.0863 112.431 9.64233 100.781 9.64233C94.8121 9.64233 89.4222 12.1216 85.5849 16.1066C91.1687 22.1316 95.3537 29.5607 97.5985 37.8323C98.2624 37.7892 98.9318 37.7674 99.6061 37.7674C106.266 37.7674 112.445 39.9006 117.543 43.544ZM52.3498 96.1047L71.0998 67.9797L78.9003 73.18L65.0087 94.0173H79.6875H88.8551L83.4876 101.449L63.1751 129.574L55.5749 124.085L70.5199 103.392H56.25H47.4913L52.3498 96.1047Z" fill="#C2C2C2"/>
</svg>
