<svg width="132" height="132" viewBox="0 0 132 132" fill="none" xmlns="http://www.w3.org/2000/svg">
<path fill-rule="evenodd" clip-rule="evenodd" d="M0 51.8298C0 74.1491 13.6759 93.1563 32.8125 100.333V90.1294C19.0795 83.4867 9.375 68.9934 9.375 51.8298C9.375 28.207 27.7584 9.64233 49.7263 9.64233C68.3619 9.64233 84.4179 23.0019 88.8603 41.4758L88.8744 41.4701C89.5018 44.0333 89.9018 46.6908 90.0508 49.418C92.9715 47.9541 96.2212 47.1424 99.6061 47.1424C111.587 47.1424 121.875 57.3123 121.875 70.5798C121.875 83.7543 111.731 93.8746 99.8576 94.0157V94.0173H98.4375V103.37C98.8253 103.385 99.2148 103.392 99.6061 103.392C117.083 103.392 131.25 88.7016 131.25 70.5798C131.25 52.458 117.083 37.7674 99.6061 37.7674C98.9318 37.7674 98.2624 37.7892 97.5985 37.8323C91.716 16.1569 72.5107 0.267334 49.7263 0.267334C22.2632 0.267334 0 23.3527 0 51.8298ZM71.0998 67.9797L52.3498 96.1047L47.4913 103.392H56.25H70.5199L55.5749 124.085L63.1751 129.574L83.4876 101.449L88.8551 94.0173H79.6875H65.0087L78.9003 73.18L71.0998 67.9797ZM86.0668 117.101C85.0935 119.381 84.3792 121.818 84.3799 124.06C84.3812 128.179 87.5302 131.517 91.4134 131.517C95.2967 131.517 98.4437 128.179 98.4424 124.06C98.4418 121.964 97.6534 119.48 96.6048 117.104C94.52 112.381 91.4062 108.08 91.4062 108.08C91.4062 108.08 88.1457 112.231 86.0668 117.101ZM32.8174 124.06C32.8167 121.818 33.531 119.381 34.5043 117.101C36.5832 112.231 39.8438 108.08 39.8438 108.08C39.8438 108.08 42.9575 112.381 45.0423 117.104C46.091 119.48 46.8793 121.964 46.8799 124.06C46.8812 128.179 43.7342 131.517 39.8509 131.517C35.9677 131.517 32.8187 128.179 32.8174 124.06Z" fill="#C2C2C2"/>
</svg>
