<svg width="113" height="90" viewBox="0 0 113 90" fill="none" xmlns="http://www.w3.org/2000/svg">
<path fill-rule="evenodd" clip-rule="evenodd" d="M47.2506 19.4284L47.2506 19.4008L20.7159 19.4005L46.1688 10.2033L46.1661 10.1957C46.6535 10.0728 47.1579 10.029 47.6599 10.0665C47.7262 10.0714 47.7924 10.0778 47.8584 10.0856L47.8594 10.0857C48.5488 10.1669 49.2115 10.4002 49.7996 10.7688L49.7997 10.7689C50.3879 11.1375 50.8868 11.6323 51.2605 12.2173L51.2611 12.2183C51.6346 12.8034 51.8736 13.4642 51.9606 14.1529L51.9608 14.1542C52.0477 14.8432 51.9805 15.5429 51.7641 16.2028L51.7639 16.2033C51.5473 16.8633 51.1867 17.4669 50.7083 17.9705L50.7079 17.9709C50.2296 18.4742 49.6454 18.865 48.9977 19.1148L48.9964 19.1153C48.9355 19.1388 48.8742 19.161 48.8125 19.1819C48.3094 19.352 47.7812 19.4353 47.2506 19.4284ZM0.375 16.781V28.776L47.1542 28.7766C48.9308 28.7965 50.6979 28.4788 52.3606 27.8373L52.3619 27.8368C53.6275 27.3484 54.8121 26.6804 55.8804 25.8564C56.4493 25.4176 56.9852 24.9345 57.4828 24.4107L57.4833 24.4102C58.9154 22.9027 59.9948 21.0957 60.6434 19.1198L60.6435 19.1193C61.292 17.1435 61.4935 15.0482 61.2333 12.9849L61.2332 12.9836C60.9728 10.9203 60.2574 8.94067 59.1386 7.1878L59.138 7.18685C58.0189 5.43378 56.5243 3.95142 54.7622 2.84698L54.7621 2.84693C54.1498 2.46312 53.5105 2.12829 52.8502 1.84456C51.6105 1.31182 50.2969 0.959212 48.9494 0.800788L48.9484 0.800671C46.9408 0.56479 44.9066 0.765652 42.9849 1.38868L42.9835 1.38469L42.8396 1.43666L42.8227 1.44237L42.8207 1.44303L42.8209 1.44345L0.375 16.781ZM0.375 56.9457V66.576L62.2773 88.5984L62.2765 88.6003C64.5168 89.4941 66.9265 89.8827 69.3341 89.7383C70.2598 89.6828 71.1765 89.549 72.0745 89.3397C73.512 89.0046 74.9019 88.4759 76.2052 87.7649C78.3226 86.6097 80.1592 85.0015 81.5841 83.0549C83.009 81.1083 83.9871 78.8713 84.4487 76.5033C84.9103 74.1353 84.8441 71.6946 84.2547 69.3552C83.6654 67.0157 82.5674 64.8351 81.039 62.9687C80.0982 61.8199 79.0087 60.8075 77.8022 59.9567C77.0487 59.4252 76.2495 58.9568 75.4126 58.5575C73.239 57.5205 70.8638 56.975 68.4557 56.9599V56.9459L0.375 56.9457ZM68.3921 66.3217L27.6333 66.3216L65.9259 79.9446L65.9224 79.9542C66.8326 80.2901 67.8032 80.4338 68.7729 80.3757C69.8039 80.3138 70.8085 80.0253 71.7152 79.5306C72.622 79.0359 73.4084 78.3472 74.0186 77.5137C74.6288 76.6801 75.0476 75.7222 75.2453 74.7081C75.443 73.6941 75.4146 72.6489 75.1623 71.6471C74.9099 70.6453 74.4397 69.7115 73.7852 68.9123C73.1307 68.1131 72.3081 67.4681 71.3758 67.0233C70.4449 66.5792 69.4277 66.3456 68.3964 66.3392L68.392 66.3392L68.392 66.3374L68.3921 66.3217ZM89.5221 20.6179L89.5179 20.6202L84.9076 12.4571L84.9023 12.4477L84.9115 12.4425C87.4077 11.0337 90.1936 10.2161 93.0551 10.0525C93.4702 10.0288 93.8852 10.0189 94.2996 10.0228C96.7455 10.0456 99.1675 10.5469 101.428 11.503C104.071 12.621 106.422 14.331 108.3 16.5012C110.179 18.6714 111.534 21.244 112.262 24.0207C112.99 26.7974 113.071 29.7042 112.499 32.5171C111.926 35.33 110.716 37.974 108.962 40.2455C107.461 42.1877 105.597 43.8131 103.477 45.0334C103.118 45.2403 102.751 45.4355 102.378 45.6186C99.8009 46.8821 96.9685 47.5371 94.0988 47.533V47.5317H0.375V38.1567H94.1119L94.1119 38.1465C95.5454 38.1485 96.9603 37.8214 98.2475 37.1902C99.5347 36.5591 100.66 35.6408 101.536 34.5062C102.413 33.3715 103.017 32.0507 103.303 30.6456C103.589 29.2404 103.549 27.7884 103.185 26.4013C102.821 25.0142 102.144 23.7292 101.206 22.6451C100.268 21.561 99.0933 20.7068 97.7729 20.1483C96.4526 19.5898 95.0218 19.3419 93.5906 19.4237C92.161 19.5055 90.7691 19.914 89.5221 20.6179Z" fill="#C2C2C2"/>
</svg>
