<svg width="132" height="132" viewBox="0 0 132 132" fill="none" xmlns="http://www.w3.org/2000/svg">
<path fill-rule="evenodd" clip-rule="evenodd" d="M45.0551 28.7622C46.7144 28.5888 48.3979 28.5 50.1013 28.5C72.8857 28.5 92.091 44.3895 97.9735 66.065C98.4444 66.0344 98.918 66.0145 99.3942 66.0056C99.2007 66.0022 99.0067 66.0005 98.8124 66.0005L98.6552 66.0009L98.6549 66H105.844H106.126V65.9976C115.057 65.8469 122.25 58.5604 122.25 49.5938C122.25 40.5328 114.905 33.1875 105.844 33.1875C102.801 33.1875 99.9524 34.0156 97.5101 35.4586C97.5028 32.8396 97.1051 30.3123 96.3719 27.9321C92.7194 17.3506 82.6719 9.75 70.8492 9.75C58.7196 9.75 48.4585 17.7504 45.0551 28.7622ZM118.391 72.1212C126.404 78.0744 131.625 87.8111 131.625 98.8124C131.625 116.934 117.458 131.625 99.9811 131.625C99.5898 131.625 99.2003 131.617 98.8125 131.603V131.625H50.8459V131.619C50.5981 131.623 50.35 131.625 50.1013 131.625C22.6382 131.625 0.375 108.54 0.375 80.0625C0.375 57.0672 14.8919 37.5877 34.9412 30.9402C37.7199 13.6128 52.7386 0.375 70.8492 0.375C86.3876 0.375 99.6501 10.1196 104.859 23.831C105.186 23.8187 105.514 23.8125 105.844 23.8125C120.082 23.8125 131.625 35.3552 131.625 49.5938C131.625 59.2776 126.286 67.7145 118.391 72.1212ZM98.8125 122.25H50.8459H50.3064V122.249L50.1013 122.25C28.1334 122.25 9.75 103.685 9.75 80.0625C9.75 56.4397 28.1334 37.875 50.1013 37.875C68.7369 37.875 84.7929 51.2346 89.2353 69.7085L89.2494 69.7027C89.8768 72.2659 90.2768 74.9235 90.4258 77.6507C93.3465 76.1867 96.5962 75.375 99.9811 75.375C111.962 75.375 122.25 85.545 122.25 98.8124C122.25 111.987 112.106 122.107 100.233 122.248V122.25H98.8125Z" fill="#434343"/>
</svg>
