<svg width="132" height="127" viewBox="0 0 132 127" fill="none" xmlns="http://www.w3.org/2000/svg">
<path fill-rule="evenodd" clip-rule="evenodd" d="M108.188 102.386C121.686 98.6377 131.625 85.8662 131.625 70.6874C131.625 60.9246 127.513 52.1576 120.987 46.147C125.624 42.8698 129.186 38.0124 130.77 32.0962C131.771 28.3603 131.877 24.5955 131.221 21.0291C128.684 26.8332 122.251 30.119 115.908 28.5112C113.833 27.9852 111.998 26.994 110.488 25.6773C109.83 25.1922 109.231 24.628 108.706 23.9956C107.783 22.885 107.108 21.5901 106.725 20.1974L106.686 20.0513C105.867 17.6979 105.704 15.0864 106.361 12.4904C107.691 7.23669 112.004 3.52689 117.033 2.71092C115.744 2.11531 114.386 1.62113 112.968 1.24084C101.248 -1.90158 89.2438 3.7712 83.9843 14.1975C75.1042 5.62148 63.1936 0.375 50.1013 0.375C22.6382 0.375 0.375 23.4603 0.375 51.9375C0.375 72.3879 11.8565 90.0576 28.5 98.3939V87.5637C17.2978 80.1339 9.75 67.0741 9.75 51.9375C9.75 28.3147 28.1334 9.75 50.1013 9.75C68.7369 9.75 84.7929 23.1096 89.2353 41.5835L89.2494 41.5777C89.8768 44.1409 90.2768 46.7985 90.4258 49.5257C93.3465 48.0617 96.5962 47.25 99.9811 47.25C111.962 47.25 122.25 57.42 122.25 70.6874C122.25 80.7743 116.304 89.0707 108.188 92.4689V102.386ZM90.9474 22.522C94.0617 27.1629 96.4591 32.3597 97.9735 37.94C98.6374 37.8969 99.3068 37.875 99.9811 37.875C104.265 37.875 108.35 38.7578 112.077 40.3574C113.935 39.6469 115.65 38.5903 117.122 37.244C116.743 37.2559 116.364 37.2569 115.984 37.247C113.176 37.1731 110.416 36.5003 107.889 35.2733C105.362 34.0464 103.126 32.2937 101.33 30.1324C99.5343 27.9711 98.2203 25.451 97.4761 22.7407C96.7318 20.0304 96.5744 17.1924 97.0144 14.4163C97.1102 13.8118 97.2339 13.2133 97.3846 12.6225C94.448 14.6801 92.1902 17.7442 91.189 21.4832C91.0964 21.8292 91.0159 22.1756 90.9474 22.522ZM39.5668 89.0833C38.5935 91.3632 37.8792 93.8004 37.8799 96.0428C37.8812 100.161 41.0302 103.5 44.9134 103.5C48.7967 103.5 51.9437 100.161 51.9424 96.0428C51.9418 93.9462 51.1535 91.463 50.1048 89.0869C48.02 84.3632 44.9062 80.0625 44.9062 80.0625C44.9062 80.0625 41.6457 84.2139 39.5668 89.0833ZM61.3174 96.0428C61.3167 93.8004 62.031 91.3632 63.0043 89.0833C65.0832 84.2139 68.3438 80.0625 68.3438 80.0625C68.3438 80.0625 71.4575 84.3632 73.5423 89.0869C74.591 91.463 75.3793 93.9462 75.3799 96.0428C75.3812 100.161 72.2342 103.5 68.3509 103.5C64.4677 103.5 61.3187 100.161 61.3174 96.0428ZM53.0411 112.521C52.0678 114.801 51.3535 117.238 51.3542 119.48C51.3554 123.599 54.5045 126.938 58.3877 126.938C62.271 126.938 65.4179 123.599 65.4167 119.48C65.416 117.384 64.6277 114.901 63.579 112.524C61.4943 107.801 58.3805 103.5 58.3805 103.5C58.3805 103.5 55.1199 107.651 53.0411 112.521ZM84.7549 96.0428C84.7542 93.8004 85.4685 91.3632 86.4418 89.0833C88.5207 84.2139 91.7812 80.0625 91.7812 80.0625C91.7812 80.0625 94.895 84.3632 96.9798 89.0869C98.0284 91.463 98.8168 93.9462 98.8174 96.0428C98.8187 100.161 95.6717 103.5 91.7884 103.5C87.9052 103.5 84.7562 100.161 84.7549 96.0428ZM76.5484 112.521C75.5751 114.801 74.8608 117.238 74.8615 119.48C74.8628 123.599 78.0118 126.938 81.895 126.938C85.7783 126.938 88.9253 123.599 88.924 119.48C88.9233 117.384 88.135 114.901 87.0863 112.524C85.0016 107.801 81.8878 103.5 81.8878 103.5C81.8878 103.5 78.6272 107.651 76.5484 112.521Z" fill="#434343"/>
</svg>
