<svg width="132" height="127" viewBox="0 0 132 127" fill="none" xmlns="http://www.w3.org/2000/svg">
<path fill-rule="evenodd" clip-rule="evenodd" d="M131.625 70.6874C131.625 85.8662 121.686 98.6377 108.188 102.386V92.4689C116.304 89.0707 122.25 80.7743 122.25 70.6874C122.25 57.42 111.962 47.25 99.9811 47.25C96.5962 47.25 93.3465 48.0617 90.4258 49.5257C90.2768 46.7985 89.8768 44.1409 89.2494 41.5777L89.2353 41.5835C84.7929 23.1096 68.7369 9.75 50.1013 9.75C28.1334 9.75 9.75 28.3147 9.75 51.9375C9.75 67.0741 17.2978 80.1339 28.5 87.5637V98.3939C11.8565 90.0576 0.375 72.3879 0.375 51.9375C0.375 23.4603 22.6382 0.375 50.1013 0.375C72.8857 0.375 92.091 16.2645 97.9735 37.94C98.6374 37.8969 99.3068 37.875 99.9811 37.875C117.458 37.875 131.625 52.5656 131.625 70.6874ZM37.8799 96.0428C37.8792 93.8004 38.5935 91.3632 39.5668 89.0833C41.6457 84.2139 44.9062 80.0625 44.9062 80.0625C44.9062 80.0625 48.02 84.3632 50.1048 89.0869C51.1535 91.463 51.9418 93.9462 51.9424 96.0428C51.9437 100.161 48.7967 103.5 44.9134 103.5C41.0302 103.5 37.8812 100.161 37.8799 96.0428ZM63.0043 89.0833C62.031 91.3632 61.3167 93.8004 61.3174 96.0428C61.3187 100.161 64.4677 103.5 68.3509 103.5C72.2342 103.5 75.3812 100.161 75.3799 96.0428C75.3793 93.9462 74.591 91.463 73.5423 89.0869C71.4575 84.3632 68.3438 80.0625 68.3438 80.0625C68.3438 80.0625 65.0832 84.2139 63.0043 89.0833ZM51.3542 119.48C51.3535 117.238 52.0678 114.801 53.0411 112.521C55.1199 107.651 58.3805 103.5 58.3805 103.5C58.3805 103.5 61.4943 107.801 63.579 112.524C64.6277 114.901 65.416 117.384 65.4167 119.48C65.4179 123.599 62.271 126.938 58.3877 126.938C54.5045 126.938 51.3554 123.599 51.3542 119.48ZM86.4418 89.0833C85.4685 91.3632 84.7542 93.8004 84.7549 96.0428C84.7562 100.161 87.9052 103.5 91.7884 103.5C95.6717 103.5 98.8187 100.161 98.8174 96.0428C98.8168 93.9462 98.0284 91.463 96.9798 89.0869C94.895 84.3632 91.7812 80.0625 91.7812 80.0625C91.7812 80.0625 88.5207 84.2139 86.4418 89.0833ZM74.8615 119.48C74.8608 117.238 75.5751 114.801 76.5484 112.521C78.6272 107.651 81.8878 103.5 81.8878 103.5C81.8878 103.5 85.0016 107.801 87.0863 112.524C88.135 114.901 88.9233 117.384 88.924 119.48C88.9253 123.599 85.7783 126.938 81.895 126.938C78.0118 126.938 74.8628 123.599 74.8615 119.48Z" fill="#434343"/>
</svg>
