<svg width="132" height="132" viewBox="0 0 132 132" fill="none" xmlns="http://www.w3.org/2000/svg">
<path fill-rule="evenodd" clip-rule="evenodd" d="M28.5 98.3939C11.8565 90.0576 0.375 72.3879 0.375 51.9375C0.375 23.4603 22.6382 0.375 50.1013 0.375C63.1936 0.375 75.1042 5.62148 83.9843 14.1975C89.2438 3.7712 101.248 -1.90158 112.968 1.24084C114.386 1.62113 115.744 2.11531 117.033 2.71092C112.004 3.52689 107.691 7.23669 106.361 12.4904C105.704 15.0864 105.867 17.6979 106.686 20.0513L106.725 20.1974C107.108 21.5901 107.783 22.885 108.706 23.9956C109.231 24.628 109.83 25.1922 110.488 25.6773C111.998 26.994 113.833 27.9852 115.908 28.5112C122.251 30.119 128.684 26.8332 131.221 21.0291C131.877 24.5955 131.771 28.3603 130.77 32.0962C129.186 38.0124 125.624 42.8698 120.987 46.147C127.513 52.1576 131.625 60.9246 131.625 70.6874C131.625 84.0476 123.925 95.5428 112.875 100.661V89.7866C118.493 85.5922 122.25 78.7054 122.25 70.6874C122.25 57.42 111.962 47.25 99.9811 47.25C96.5962 47.25 93.3465 48.0617 90.4258 49.5257C90.2768 46.7985 89.8768 44.1409 89.2494 41.5777L89.2353 41.5835C84.7929 23.1096 68.7369 9.75 50.1013 9.75C28.1334 9.75 9.75 28.3147 9.75 51.9375C9.75 67.0741 17.2978 80.1339 28.5 87.5637V98.3939ZM112.077 40.3574C113.935 39.6469 115.65 38.5903 117.122 37.244C116.743 37.2559 116.364 37.2569 115.984 37.247C113.176 37.1731 110.416 36.5003 107.889 35.2733C105.362 34.0464 103.126 32.2937 101.33 30.1324C99.5343 27.9711 98.2203 25.451 97.4761 22.7407C96.7318 20.0304 96.5744 17.1924 97.0144 14.4163C97.1102 13.8118 97.2339 13.2133 97.3846 12.6225C94.448 14.6801 92.1902 17.7442 91.189 21.4832C91.0964 21.8292 91.0159 22.1756 90.9474 22.522C94.0617 27.1629 96.4591 32.3597 97.9735 37.94C98.6374 37.8969 99.3068 37.875 99.9811 37.875C104.265 37.875 108.35 38.7578 112.077 40.3574ZM82.0551 84.6553C81.2678 86.0194 79.7281 86.2673 78.7451 85.6996C77.7622 85.1319 77.2069 83.674 77.9942 82.3099C78.9979 80.5707 81.0722 78.6076 83.81 76.6706C83.7227 77.7612 83.602 78.8234 83.442 79.8305C83.0405 82.3566 82.4863 83.9082 82.0551 84.6553ZM92.8089 61.3318C92.8089 61.3318 88.6722 62.8955 83.7862 65.6329C78.6781 68.4948 72.7511 72.6394 69.8759 77.6211C66.5811 83.3299 68.4539 90.5821 74.0589 93.8193C79.6639 97.0565 86.8786 95.0528 90.1734 89.344C92.7934 84.8044 93.3943 77.3556 93.3712 71.2799C93.35 65.7337 92.8089 61.3318 92.8089 61.3318ZM51.1043 89.4257C50.317 90.7899 48.7772 91.0377 47.7943 90.47C46.8114 89.9023 46.2561 88.4445 47.0434 87.0803C48.0471 85.3412 50.1214 83.378 52.8592 81.441C52.7719 82.5316 52.6512 83.5938 52.4911 84.6009C52.0897 87.127 51.5355 88.6786 51.1043 89.4257ZM61.8581 66.1022C61.8581 66.1022 57.7214 67.666 52.8354 70.4034C47.7273 73.2652 41.8003 77.4099 38.9251 82.3916C35.6303 88.1004 37.5031 95.3525 43.1081 98.5897C48.7131 101.827 55.9278 99.8233 59.2226 94.1145C61.8426 89.5749 62.4435 82.126 62.4203 76.0503C62.3992 70.5041 61.8581 66.1022 61.8581 66.1022ZM89.3118 114.448C90.2947 115.016 91.8344 114.768 92.6218 113.404C93.0529 112.657 93.6072 111.105 94.0086 108.579C94.1686 107.572 94.2893 106.51 94.3767 105.419C91.6389 107.356 89.5645 109.319 88.5608 111.058C87.7735 112.423 88.3288 113.88 89.3118 114.448ZM94.3529 94.3815C99.2388 91.6441 103.376 90.0804 103.376 90.0804C103.376 90.0804 103.917 94.4823 103.938 100.028C103.961 106.104 103.36 113.553 100.74 118.093C97.4452 123.801 90.2305 125.805 84.6255 122.568C79.0205 119.331 77.1477 112.079 80.4426 106.37C83.3177 101.388 89.2448 97.2434 94.3529 94.3815ZM61.1296 120.913C60.3423 122.277 58.8026 122.525 57.8196 121.957C56.8367 121.389 56.2814 119.931 57.0687 118.567C58.0724 116.828 60.1467 114.865 62.8845 112.928C62.7972 114.019 62.6765 115.081 62.5164 116.088C62.115 118.614 61.5608 120.166 61.1296 120.913ZM71.8834 97.5892C71.8834 97.5892 67.7467 99.153 62.8607 101.89C57.7526 104.752 51.8256 108.897 48.9504 113.879C45.6556 119.587 47.5284 126.84 53.1334 130.077C58.7384 133.314 65.9531 131.31 69.2479 125.601C71.8679 121.062 72.4688 113.613 72.4456 107.537C72.4245 101.991 71.8834 97.5892 71.8834 97.5892Z" fill="#434343"/>
</svg>
