<svg width="132" height="132" viewBox="0 0 132 132" fill="none" xmlns="http://www.w3.org/2000/svg">
<path fill-rule="evenodd" clip-rule="evenodd" d="M0.375 51.9375C0.375 72.3879 11.8565 90.0576 28.5 98.3939V87.5637C17.2978 80.1339 9.75 67.0741 9.75 51.9375C9.75 28.3147 28.1334 9.75 50.1013 9.75C68.7369 9.75 84.7929 23.1096 89.2353 41.5835L89.2494 41.5777C89.8768 44.1409 90.2768 46.7985 90.4258 49.5257C93.3465 48.0617 96.5962 47.25 99.9811 47.25C111.962 47.25 122.25 57.42 122.25 70.6874C122.25 78.7054 118.493 85.5922 112.875 89.7866V100.661C123.925 95.5428 131.625 84.0476 131.625 70.6874C131.625 52.5656 117.458 37.875 99.9811 37.875C99.3068 37.875 98.6374 37.8969 97.9735 37.94C92.091 16.2645 72.8857 0.375 50.1013 0.375C22.6382 0.375 0.375 23.4603 0.375 51.9375ZM78.7451 85.6997C79.7281 86.2674 81.2678 86.0196 82.0551 84.6554C82.4863 83.9083 83.0405 82.3567 83.442 79.8306C83.602 78.8235 83.7227 77.7614 83.81 76.6707C81.0722 78.6077 78.9979 80.5709 77.9942 82.31C77.2069 83.6742 77.7622 85.132 78.7451 85.6997ZM83.7862 65.6331C88.6722 62.8957 92.8089 61.332 92.8089 61.332C92.8089 61.332 93.35 65.7338 93.3712 71.28C93.3943 77.3557 92.7934 84.8046 90.1734 89.3442C86.8786 95.053 79.6639 97.0566 74.0589 93.8194C68.4539 90.5822 66.5811 83.3301 69.8759 77.6213C72.7511 72.6396 78.6781 68.4949 83.7862 65.6331ZM47.7943 90.4702C48.7772 91.0379 50.317 90.79 51.1043 89.4259C51.5355 88.6788 52.0897 87.1272 52.4911 84.6011C52.6512 83.594 52.7719 82.5318 52.8592 81.4412C50.1214 83.3782 48.0471 85.3413 47.0434 87.0805C46.2561 88.4446 46.8114 89.9025 47.7943 90.4702ZM52.8354 70.4035C57.7214 67.6661 61.8581 66.1024 61.8581 66.1024C61.8581 66.1024 62.3992 70.5043 62.4203 76.0505C62.4435 82.1262 61.8426 89.575 59.2226 94.1146C55.9278 99.8234 48.7131 101.827 43.1081 98.5899C37.5031 95.3527 35.6303 88.1005 38.9251 82.3917C41.8003 77.41 47.7273 73.2654 52.8354 70.4035ZM92.6218 113.404C91.8344 114.768 90.2947 115.016 89.3118 114.448C88.3288 113.881 87.7735 112.423 88.5608 111.059C89.5645 109.319 91.6389 107.356 94.3767 105.419C94.2893 106.51 94.1686 107.572 94.0086 108.579C93.6072 111.105 93.0529 112.657 92.6218 113.404ZM103.376 90.0805C103.376 90.0805 99.2388 91.6443 94.3529 94.3817C89.2448 97.2435 83.3177 101.388 80.4426 106.37C77.1477 112.079 79.0205 119.331 84.6255 122.568C90.2305 125.805 97.4452 123.802 100.74 118.093C103.36 113.553 103.961 106.104 103.938 100.029C103.917 94.4824 103.376 90.0805 103.376 90.0805ZM57.8196 121.957C58.8026 122.525 60.3423 122.277 61.1296 120.913C61.5608 120.166 62.115 118.614 62.5164 116.088C62.6765 115.081 62.7972 114.019 62.8845 112.928C60.1467 114.865 58.0724 116.828 57.0687 118.567C56.2814 119.932 56.8367 121.389 57.8196 121.957ZM62.8607 101.891C67.7467 99.1531 71.8834 97.5894 71.8834 97.5894C71.8834 97.5894 72.4245 101.991 72.4456 107.537C72.4688 113.613 71.8679 121.062 69.2479 125.602C65.9531 131.31 58.7384 133.314 53.1334 130.077C47.5284 126.84 45.6556 119.588 48.9504 113.879C51.8256 108.897 57.7526 104.752 62.8607 101.891Z" fill="#434343"/>
</svg>
