<svg width="86" height="114" viewBox="0 0 86 114" fill="none" xmlns="http://www.w3.org/2000/svg">
<path fill-rule="evenodd" clip-rule="evenodd" d="M75.8125 77.4553C75.8125 90.6613 62.6253 103.875 43 103.875C23.3747 103.875 10.1875 90.6613 10.1875 77.4553C10.1875 63.7574 19.0966 46.6987 29.568 31.8483C34.3009 25.1362 39.051 19.2895 42.7655 14.9704C46.5507 19.627 51.4622 25.9658 56.356 33.1196C61.4585 40.5785 66.4213 48.7491 70.0781 56.7012C73.802 64.7989 75.8125 71.9091 75.8125 77.4553ZM0.8125 77.4553C0.8125 51.9702 24.8651 21.2389 36.6474 7.7139C40.4692 3.32674 43 0.75 43 0.75C43 0.75 45.4245 3.43016 49.1112 7.91975C60.8027 22.1578 85.1875 54.594 85.1875 77.4553C85.1875 97.2242 66.2995 113.25 43 113.25C19.7005 113.25 0.8125 97.2242 0.8125 77.4553ZM21.8985 61.6875H31.984C30.0864 66.0185 28.9375 70.1257 28.9375 73.6198C28.9375 78.9849 34.1858 85.125 43 85.125V94.5C30.0558 94.5 19.5625 85.1516 19.5625 73.6198C19.5625 69.7717 20.4578 65.7185 21.8985 61.6875Z" fill="#434343"/>
</svg>
