<svg width="132" height="132" viewBox="0 0 132 132" fill="none" xmlns="http://www.w3.org/2000/svg">
<path fill-rule="evenodd" clip-rule="evenodd" d="M104.012 53.4001C111.037 53.1716 117.708 50.3169 122.689 45.4194C125.257 42.8609 127.318 39.8068 128.713 36.4154C130.6 41.8567 131.625 47.6952 131.625 53.7706C131.625 77.6788 115.761 97.917 93.8918 104.721C94.0617 105.86 94.1498 107.026 94.1498 108.212C94.1498 121.163 83.651 131.662 70.7001 131.662C70.262 131.662 69.8267 131.65 69.3945 131.626H35.5546V131.619L35.5251 131.619C16.0986 131.619 0.350403 116.02 0.350403 96.7777C0.350403 81.2672 10.5825 68.1238 24.7254 63.6092C24.1258 60.4203 23.8122 57.1317 23.8122 53.7706C23.8122 24.281 47.9469 0.375 77.7185 0.375C81.9243 0.375 86.0177 0.852102 89.9464 1.75465C86.6582 3.46617 83.7593 5.80841 81.4146 8.61831C76.9999 14.0625 74.835 20.9689 75.3664 27.9407C75.9063 35.0238 79.1878 41.6268 84.5255 46.3708C89.8633 51.1149 96.8447 53.6333 104.012 53.4001ZM33.9597 61.9701C34.4786 61.9476 35.0005 61.9362 35.5251 61.9362C50.7241 61.9362 63.6715 71.4849 68.5868 84.8563C69.2829 84.7942 69.9878 84.7624 70.7001 84.7624C79.137 84.7624 86.5333 89.218 90.6642 95.9046C107.784 90.7746 120.488 75.7348 122.081 57.6274C116.735 60.7623 110.635 62.5503 104.323 62.7556C94.72 63.068 85.3662 59.6939 78.2146 53.3377C71.063 46.9816 66.6665 38.1348 65.9432 28.6447C65.4662 22.3877 66.6103 16.17 69.1955 10.5541C48.6248 14.4905 33.1872 32.4061 33.1872 53.7706C33.1872 56.571 33.4525 59.312 33.9597 61.9701ZM35.648 122.244L35.5251 122.244C21.192 122.244 9.7254 110.759 9.7254 96.7777C9.7254 82.7969 21.192 71.3112 35.5251 71.3112C46.6522 71.3112 56.0518 78.2335 59.7 87.8715L59.7241 87.8588C60.7687 90.6358 61.3396 93.6412 61.3396 96.7788C61.3396 97.0926 61.3339 97.4051 61.3226 97.7162C63.812 95.4905 67.098 94.1374 70.7001 94.1374C78.4733 94.1374 84.7748 100.439 84.7748 108.212C84.7748 115.985 78.4733 122.287 70.7001 122.287H70.6872V122.251H69.6894L69.5918 122.244H51.91L51.9154 122.251H51.881L51.8756 122.244H35.648Z" fill="#434343"/>
</svg>
