<svg width="132" height="132" viewBox="0 0 132 132" fill="none" xmlns="http://www.w3.org/2000/svg">
<path fill-rule="evenodd" clip-rule="evenodd" d="M131.625 70.6874C131.625 87.5759 119.32 101.484 103.5 103.299V93.8295C113.908 92.0696 122.25 82.6343 122.25 70.6874C122.25 57.42 111.962 47.25 99.9811 47.25C96.5962 47.25 93.3465 48.0617 90.4258 49.5257C90.2768 46.7985 89.8768 44.1409 89.2494 41.5777L89.2353 41.5835C84.7929 23.1096 68.7369 9.75 50.1013 9.75C28.1334 9.75 9.75 28.3147 9.75 51.9375C9.75 70.9957 21.7153 86.7616 37.875 92.1429V101.93C16.3236 96.2802 0.375 76.0401 0.375 51.9375C0.375 23.4603 22.6382 0.375 50.1013 0.375C59.7316 0.375 68.7224 3.21363 76.3381 8.12798C82.1814 3.28564 89.6836 0.375 97.8655 0.375C116.511 0.375 131.625 15.4898 131.625 34.1348C131.625 40.866 129.655 47.1371 126.261 52.403C129.648 57.6278 131.625 63.9182 131.625 70.6874ZM119.693 45.0176C121.33 41.7416 122.25 38.0458 122.25 34.1348C122.25 20.6675 111.333 9.75 97.8655 9.75C92.6779 9.75 87.8686 11.37 83.9159 14.1316C90.5241 20.4896 95.4626 28.6877 97.9735 37.94C98.6374 37.8969 99.3068 37.875 99.9811 37.875C107.434 37.875 114.286 40.547 119.693 45.0176ZM56.6349 119.7C56.6354 121.275 55.426 122.26 54.2909 122.26C53.1558 122.26 51.9458 121.275 51.9453 119.7C51.9447 117.692 52.7591 114.955 54.1612 111.908C54.631 112.896 55.0577 113.876 55.4228 114.829C56.3386 117.217 56.6347 118.838 56.6349 119.7ZM54.2823 94.125C54.2823 94.125 51.4822 97.548 48.6203 102.362C45.6282 107.395 42.5686 113.948 42.5703 119.7C42.5724 126.292 47.8211 131.635 54.2938 131.635C60.7665 131.635 66.0119 126.292 66.0099 119.7C66.0083 114.459 62.8032 107.708 59.7446 102.458C56.9524 97.6662 54.2823 94.125 54.2823 94.125ZM82.4159 108.197C83.551 108.197 84.7604 107.213 84.7599 105.638C84.7597 104.775 84.4636 103.154 83.5478 100.766C83.1827 99.814 82.756 98.8338 82.2862 97.8457C80.8841 100.892 80.0697 103.63 80.0703 105.638C80.0708 107.213 81.2808 108.197 82.4159 108.197ZM76.7453 88.2996C79.6072 83.4855 82.4073 80.0625 82.4073 80.0625C82.4073 80.0625 85.0774 83.6037 87.8696 88.3958C90.9282 93.6455 94.1333 100.396 94.1349 105.638C94.1369 112.229 88.8915 117.572 82.4188 117.572C75.9461 117.572 70.6974 112.229 70.6953 105.638C70.6936 99.8859 73.7532 93.3325 76.7453 88.2996Z" fill="#434343"/>
</svg>
