<svg width="132" height="132" viewBox="0 0 132 132" fill="none" xmlns="http://www.w3.org/2000/svg">
<path fill-rule="evenodd" clip-rule="evenodd" d="M131.625 70.6874C131.625 87.5759 119.32 101.484 103.5 103.299V93.8295C113.908 92.0696 122.25 82.6343 122.25 70.6874C122.25 57.42 111.962 47.25 99.9811 47.25C96.5962 47.25 93.3465 48.0617 90.4258 49.5257C90.2768 46.7985 89.8768 44.1409 89.2494 41.5777L89.2353 41.5835C84.7929 23.1096 68.7369 9.75 50.1013 9.75C28.1334 9.75 9.75 28.3147 9.75 51.9375C9.75 70.9957 21.7153 86.7616 37.875 92.1429V101.93C16.3236 96.2802 0.375 76.0401 0.375 51.9375C0.375 23.4603 22.6382 0.375 50.1013 0.375C63.1936 0.375 75.1042 5.62148 83.9843 14.1975C89.2438 3.7712 101.248 -1.90158 112.968 1.24084C114.386 1.62113 115.744 2.11531 117.033 2.71092C112.004 3.52689 107.691 7.23669 106.361 12.4904C105.704 15.0864 105.867 17.6979 106.686 20.0513L106.725 20.1974C107.108 21.5901 107.783 22.885 108.706 23.9956C109.231 24.628 109.83 25.1922 110.488 25.6773C111.998 26.994 113.833 27.9852 115.908 28.5112C122.251 30.119 128.684 26.8332 131.221 21.0291C131.877 24.5955 131.771 28.3603 130.77 32.0962C129.186 38.0124 125.624 42.8698 120.987 46.147C127.513 52.1576 131.625 60.9246 131.625 70.6874ZM112.077 40.3574C113.935 39.6469 115.65 38.5903 117.122 37.244C116.743 37.2559 116.364 37.2569 115.984 37.247C113.176 37.1731 110.416 36.5003 107.889 35.2733C105.362 34.0464 103.126 32.2937 101.33 30.1324C99.5343 27.9711 98.2203 25.451 97.4761 22.7407C96.7318 20.0304 96.5744 17.1924 97.0144 14.4163C97.1102 13.8118 97.2339 13.2133 97.3846 12.6225C94.448 14.6801 92.1902 17.7442 91.189 21.4832C91.0964 21.8292 91.0159 22.1756 90.9474 22.522C94.0617 27.1629 96.4591 32.3597 97.9735 37.94C98.6374 37.8969 99.3068 37.875 99.9811 37.875C104.265 37.875 108.35 38.7578 112.077 40.3574ZM56.6349 119.7C56.6354 121.275 55.426 122.26 54.2909 122.26C53.1558 122.26 51.9458 121.275 51.9453 119.7C51.9447 117.692 52.7591 114.955 54.1612 111.908C54.631 112.896 55.0577 113.876 55.4228 114.828C56.3386 117.217 56.6347 118.838 56.6349 119.7ZM54.2823 94.1249C54.2823 94.1249 51.4822 97.5479 48.6203 102.362C45.6282 107.395 42.5686 113.948 42.5703 119.7C42.5724 126.291 47.8211 131.635 54.2938 131.635C60.7665 131.635 66.0119 126.291 66.0099 119.7C66.0083 114.459 62.8032 107.708 59.7446 102.458C56.9524 97.666 54.2823 94.1249 54.2823 94.1249ZM82.4159 108.197C83.551 108.197 84.7604 107.213 84.7599 105.638C84.7597 104.775 84.4636 103.154 83.5478 100.766C83.1827 99.8138 82.756 98.8337 82.2862 97.8456C80.8841 100.892 80.0697 103.63 80.0703 105.638C80.0708 107.213 81.2808 108.197 82.4159 108.197ZM76.7453 88.2995C79.6072 83.4854 82.4073 80.0624 82.4073 80.0624C82.4073 80.0624 85.0774 83.6035 87.8696 88.3957C90.9282 93.6453 94.1333 100.396 94.1349 105.638C94.1369 112.229 88.8915 117.572 82.4188 117.572C75.9461 117.572 70.6974 112.229 70.6953 105.638C70.6936 99.8858 73.7532 93.3324 76.7453 88.2995Z" fill="#434343"/>
</svg>
