<svg width="132" height="132" viewBox="0 0 132 132" fill="none" xmlns="http://www.w3.org/2000/svg">
<path fill-rule="evenodd" clip-rule="evenodd" d="M112.242 65.8762C117.4 60.9031 120.902 54.3356 121.934 47.0539C121.585 47.2093 121.233 47.358 120.879 47.5C120.589 47.6162 120.297 47.728 120.003 47.8352C116.185 49.2292 112.082 49.8548 107.944 49.6334L107.857 49.6286C100.508 49.2145 93.5732 46.1571 88.3883 41.0443L88.3517 41.0082C83.6544 36.36 80.7039 30.3208 79.9374 23.8713C79.8539 23.1686 79.7963 22.461 79.7652 21.7499C79.5954 17.8645 80.2228 14.021 81.5737 10.433C70.7925 12.6014 61.9852 19.7467 57.6398 29.1856C75.5392 32.269 90.1857 45.4689 96.052 62.9946C96.9621 62.9151 97.8828 62.8746 98.8124 62.8746C103.597 62.8746 108.143 63.9475 112.242 65.8762ZM47.7745 28.5346C53.6876 12.131 69.6788 0.375 88.4783 0.375C93.0551 0.375 97.4655 1.0718 101.605 2.36282C97.7953 3.93407 94.5792 6.60391 92.3747 9.96471L92.3006 9.95656C90.1313 13.3476 89.0458 17.32 89.2224 21.3586C89.2424 21.8157 89.2784 22.2706 89.3301 22.7225C89.8356 27.1398 91.8415 31.2798 95.047 34.468L95.0835 34.5042C98.6392 38.0227 103.407 40.1215 108.457 40.3918L108.543 40.3962C111.585 40.5463 114.597 40.0264 117.366 38.9035C119.167 38.1732 120.865 37.1879 122.403 35.966L122.409 35.9737C125.249 33.7072 127.449 30.7068 128.702 27.2696C130.589 32.0111 131.625 37.1686 131.625 42.5625C131.625 53.602 127.288 63.6511 120.19 71.1701C127.191 77.4743 131.625 86.8195 131.625 97.2496C131.625 116.234 116.934 131.625 98.8124 131.625L98.8125 131.625H49.7263V131.625L49.5937 131.625C22.411 131.625 0.375 108.54 0.375 80.0625C0.375 52.2234 21.4346 29.5372 47.7745 28.5346ZM49.8441 122.249L49.5937 122.25C27.9949 122.25 9.75 103.778 9.75 80.0625C9.75 56.3472 27.9949 37.875 49.5937 37.875C66.404 37.875 81.1826 49.0644 86.9093 65.2063L86.8985 65.2107C87.9489 68.1673 88.6949 71.2819 89.0958 74.5115C92.0867 73.0533 95.3885 72.2496 98.8124 72.2496C111.35 72.2496 122.25 83.0267 122.25 97.2496C122.25 111.473 111.35 122.25 98.8124 122.25L98.8125 122.25H49.8441V122.249Z" fill="#434343"/>
</svg>
