<svg width="114" height="114" viewBox="0 0 114 114" fill="none" xmlns="http://www.w3.org/2000/svg">
<path fill-rule="evenodd" clip-rule="evenodd" d="M47.5991 57.0056L23.6297 71.025L4.62991 62.3035L0.729675 70.8832L13.6959 76.8352L6.56378 81.0067L11.2058 89.1518L18.3367 84.981L16.9419 99.3303L26.2265 100.198L28.2705 79.1708L52.2511 65.1448V93.3414L35.2827 105.657L40.7895 113.244L52.2511 104.925V113.25H61.6261V104.925L73.0883 113.244L78.5951 105.657L61.6261 93.341V65.2099L85.6603 79.2672L87.7045 100.297L96.9891 99.4289L95.5941 85.0773L102.727 89.249L107.369 81.1039L100.237 76.9328L113.201 70.9819L109.301 62.4021L90.3033 71.1227L66.167 57.0056L90.2289 42.932L109.352 51.7102L113.252 43.1305L100.163 37.1219L107.378 32.9018L102.736 24.7567L95.6587 28.8961L97.0402 14.6835L87.7556 13.8154L85.7249 34.7062L61.6261 48.8013V20.7541L78.7041 8.35908L73.1973 0.771841L61.6261 9.17011V0.75H52.2511V9.01151L40.8985 0.771841L35.3917 8.35908L52.2511 20.5955V48.8664L28.3441 34.8835L26.2867 13.7179L17.0021 14.586L18.4104 29.0733L11.1964 24.8539L6.55438 32.9991L13.6315 37.1383L0.789918 43.033L4.69015 51.6127L23.5652 42.9485L47.5991 57.0056Z" fill="#434343"/>
</svg>
