<svg width="132" height="130" viewBox="0 0 132 130" fill="none" xmlns="http://www.w3.org/2000/svg">
<path fill-rule="evenodd" clip-rule="evenodd" d="M37.875 101.93C16.3236 96.2802 0.375 76.0401 0.375 51.9375C0.375 23.4603 22.6382 0.375 50.1013 0.375C60.8683 0.375 70.8359 3.92329 78.9761 9.95367C84.5324 4.05651 92.4144 0.375 101.156 0.375C117.984 0.375 131.625 14.0163 131.625 30.8438C131.625 38.1906 129.025 44.9301 124.694 50.1921C129.031 55.8077 131.625 62.9335 131.625 70.6874C131.625 88.8092 117.458 103.5 99.9811 103.5C99.5898 103.5 99.2003 103.492 98.8125 103.478V94.125H100.233V94.1233C112.106 93.9822 122.25 83.8619 122.25 70.6874C122.25 57.42 111.962 47.25 99.9811 47.25C96.5962 47.25 93.3465 48.0617 90.4258 49.5257C90.2768 46.7985 89.8768 44.1409 89.2494 41.5777L89.2353 41.5835C84.7929 23.1096 68.7369 9.75 50.1013 9.75C28.1334 9.75 9.75 28.3147 9.75 51.9375C9.75 70.9957 21.7153 86.7616 37.875 92.1429V101.93ZM117.918 43.6517C120.635 40.1006 122.25 35.6607 122.25 30.8438C122.25 19.194 112.806 9.75 101.156 9.75C95.1871 9.75 89.7972 12.2293 85.9599 16.2143C91.5437 22.2393 95.7287 29.6683 97.9735 37.94C98.6374 37.8969 99.3068 37.875 99.9811 37.875C106.641 37.875 112.82 40.0083 117.918 43.6517ZM52.7248 96.2123L71.4748 68.0873L79.2753 73.2877L65.3837 94.125H80.0625H89.2301L83.8626 101.557L63.5501 129.682L55.9499 124.193L70.8949 103.5H56.625H47.8663L52.7248 96.2123Z" fill="#434343"/>
</svg>
