<svg width="132" height="132" viewBox="0 0 132 132" fill="none" xmlns="http://www.w3.org/2000/svg">
<path fill-rule="evenodd" clip-rule="evenodd" d="M0.375 51.9375C0.375 70.4061 9.73901 86.6068 23.8125 95.7134V83.9365C15.2433 76.2525 9.75 64.8507 9.75 51.9375C9.75 28.3147 28.1334 9.75 50.1013 9.75C68.7369 9.75 84.7929 23.1096 89.2353 41.5835L89.2494 41.5777C89.8768 44.1409 90.2768 46.7985 90.4258 49.5257C93.3465 48.0617 96.5962 47.25 99.9811 47.25C111.962 47.25 122.25 57.42 122.25 70.6874C122.25 80.7743 116.304 89.0707 108.188 92.4689V102.386C121.686 98.6377 131.625 85.8662 131.625 70.6874C131.625 52.5656 117.458 37.875 99.9811 37.875C99.3068 37.875 98.6374 37.8969 97.9735 37.94C92.091 16.2645 72.8857 0.375 50.1013 0.375C22.6382 0.375 0.375 23.4603 0.375 51.9375ZM71.8897 105.94L75.375 103.5L71.8897 101.06L72.6291 96.8709L68.4396 97.6103L66 94.125L63.5604 97.6103L59.3709 96.8709L60.1103 101.06L56.625 103.5L60.1103 105.94L59.3709 110.129L63.5604 109.39L66 112.875L68.4396 109.39L72.6291 110.129L71.8897 105.94ZM60.5083 84.75L57.023 87.1896L57.7624 91.3791L53.5729 90.6397L51.1333 94.125L48.6937 90.6397L44.5041 91.3791L45.2435 87.1896L41.7583 84.75L45.2435 82.3104L44.5041 78.1209L48.6937 78.8603L51.1333 75.375L53.5729 78.8603L57.7624 78.1209L57.023 82.3104L60.5083 84.75ZM57.023 124.69L60.5083 122.25L57.023 119.81L57.7624 115.621L53.5729 116.36L51.1333 112.875L48.6937 116.36L44.5041 115.621L45.2435 119.81L41.7583 122.25L45.2435 124.69L44.5041 128.879L48.6937 128.14L51.1333 131.625L53.5729 128.14L57.7624 128.879L57.023 124.69ZM103.5 103.5L100.015 105.94L100.754 110.129L96.5646 109.39L94.125 112.875L91.6854 109.39L87.4959 110.129L88.2353 105.94L84.75 103.5L88.2353 101.06L87.4959 96.8709L91.6854 97.6103L94.125 94.125L96.5646 97.6103L100.754 96.8709L100.015 101.06L103.5 103.5ZM85.148 87.1896L88.6333 84.75L85.148 82.3104L85.8874 78.1209L81.6979 78.8603L79.2583 75.375L76.8187 78.8603L72.6291 78.1209L73.3685 82.3104L69.8833 84.75L73.3685 87.1896L72.6291 91.3791L76.8187 90.6397L79.2583 94.125L81.6979 90.6397L85.8874 91.3791L85.148 87.1896ZM88.6333 122.25L85.148 124.69L85.8874 128.879L81.6979 128.14L79.2583 131.625L76.8187 128.14L72.6291 128.879L73.3685 124.69L69.8833 122.25L73.3685 119.81L72.6291 115.621L76.8187 116.36L79.2583 112.875L81.6979 116.36L85.8874 115.621L85.148 119.81L88.6333 122.25ZM42.9605 105.94L46.4458 103.5L42.9605 101.06L43.6999 96.8709L39.5104 97.6103L37.0708 94.125L34.6312 97.6103L30.4416 96.8709L31.181 101.06L27.6958 103.5L31.181 105.94L30.4416 110.129L34.6312 109.39L37.0708 112.875L39.5104 109.39L43.6999 110.129L42.9605 105.94Z" fill="#434343"/>
</svg>
