<svg width="114" height="99" viewBox="0 0 114 99" fill="none" xmlns="http://www.w3.org/2000/svg">
<path fill-rule="evenodd" clip-rule="evenodd" d="M30.0772 12.2521L33.5625 9.8125L30.0772 7.37289L30.8166 3.18337L26.6271 3.92277L24.1875 0.4375L21.7479 3.92277L17.5584 3.18337L18.2978 7.37289L14.8125 9.8125L18.2978 12.2521L17.5584 16.4416L21.7479 15.7022L24.1875 19.1875L26.6271 15.7022L30.8166 16.4416L30.0772 12.2521ZM44.9443 31.0021L48.4295 28.5625L44.9443 26.1229L45.6836 21.9334L41.4941 22.6728L39.0545 19.1875L36.6149 22.6728L32.4254 21.9334L33.1648 26.1229L29.6795 28.5625L33.1648 31.0021L32.4254 35.1916L36.6149 34.4522L39.0545 37.9375L41.4941 34.4522L45.6836 35.1916L44.9443 31.0021ZM76.5545 28.5625L73.0693 31.0021L73.8086 35.1916L69.6191 34.4522L67.1795 37.9375L64.7399 34.4522L60.5504 35.1916L61.2898 31.0021L57.8045 28.5625L61.2898 26.1229L60.5504 21.9334L64.7399 22.6728L67.1795 19.1875L69.6191 22.6728L73.8086 21.9334L73.0693 26.1229L76.5545 28.5625ZM58.2022 12.2521L61.6875 9.8125L58.2022 7.37289L58.9416 3.18337L54.7521 3.92277L52.3125 0.4375L49.8729 3.92277L45.6834 3.18337L46.4228 7.37289L42.9375 9.8125L46.4228 12.2521L45.6834 16.4416L49.8729 15.7022L52.3125 19.1875L54.7521 15.7022L58.9416 16.4416L58.2022 12.2521ZM19.5 28.5625L16.0147 31.0021L16.7541 35.1916L12.5646 34.4522L10.125 37.9375L7.68539 34.4522L3.49587 35.1916L4.23527 31.0021L0.75 28.5625L4.23527 26.1229L3.49587 21.9334L7.68539 22.6728L10.125 19.1875L12.5646 22.6728L16.7541 21.9334L16.0147 26.1229L19.5 28.5625ZM89.8929 29.7274L89.8971 29.7251C91.1441 29.0212 92.536 28.6126 93.9656 28.5309C95.3968 28.4491 96.8276 28.697 98.1479 29.2555C99.4683 29.8139 100.643 30.6681 101.581 31.7522C102.519 32.8363 103.196 34.1214 103.56 35.5085C103.924 36.8955 103.964 38.3476 103.678 39.7527C103.392 41.1579 102.788 42.4787 101.911 43.6133C101.035 44.748 99.9097 45.6663 98.6225 46.2974C97.3353 46.9286 95.9204 47.2557 94.4869 47.2537L94.4869 47.2638H0.75V56.6388H94.4738V56.6402C97.3435 56.6442 100.176 55.9893 102.753 54.7258C103.126 54.5427 103.493 54.3474 103.852 54.1406C105.972 52.9203 107.836 51.2948 109.337 49.3527C111.091 47.0812 112.301 44.4372 112.874 41.6243C113.446 38.8113 113.365 35.9046 112.637 33.1279C111.909 30.3511 110.554 27.7786 108.675 25.6084C106.797 23.4382 104.446 21.7282 101.803 20.6102C99.5425 19.6541 97.1205 19.1527 94.6746 19.1299C94.2602 19.1261 93.8452 19.136 93.4301 19.1597C90.5686 19.3233 87.7827 20.1409 85.2865 21.5497L85.2773 21.5549L85.2826 21.5643L89.8929 29.7274ZM0.75 75.6832L62.6523 97.7056L62.6515 97.7075C64.8918 98.6013 67.3015 98.9899 69.7091 98.8455C70.6348 98.79 71.5515 98.6562 72.4495 98.4469C73.887 98.1118 75.2769 97.5831 76.5802 96.8721C78.6976 95.7169 80.5342 94.1087 81.9591 92.1621C83.384 90.2155 84.3621 87.9785 84.8237 85.6105C85.2853 83.2425 85.2191 80.8018 84.6297 78.4624C84.0404 76.1229 82.9424 73.9423 81.414 72.0759C80.4732 70.9271 79.3837 69.9147 78.1772 69.0639C77.4237 68.5324 76.6245 68.064 75.7876 67.6647C73.614 66.6277 71.2388 66.0822 68.8307 66.0671V66.0531L0.75 66.0529V75.6832ZM68.7671 75.4289L28.0083 75.4287L66.3009 89.0518L66.2974 89.0614C67.2076 89.3973 68.1782 89.541 69.1479 89.4829C70.1789 89.421 71.1835 89.1325 72.0902 88.6378C72.997 88.1431 73.7834 87.4544 74.3936 86.6209C75.0038 85.7873 75.4226 84.8294 75.6203 83.8153C75.818 82.8013 75.7896 81.7561 75.5373 80.7543C75.2849 79.7525 74.8147 78.8187 74.1602 78.0195C73.5057 77.2203 72.6831 76.5753 71.7509 76.1305C70.8199 75.6864 69.8027 75.4528 68.7714 75.4464L68.767 75.4464L68.767 75.4446L68.7671 75.4289Z" fill="#434343"/>
</svg>
