<svg width="114" height="114" viewBox="0 0 114 114" fill="none" xmlns="http://www.w3.org/2000/svg">
<path fill-rule="evenodd" clip-rule="evenodd" d="M111.333 71.5582C113.491 63.5063 113.787 55.3942 112.486 47.6785C110.744 53.2658 107.636 58.0925 103.627 61.8812L103.623 61.9215C100.623 64.8761 97.0858 67.2385 93.1975 68.8787C88.8289 70.7215 84.1172 71.6104 79.3775 71.4859C74.6377 71.3614 69.9792 70.2263 65.7134 68.1567C61.4476 66.087 57.6728 63.1304 54.6416 59.4846C51.6103 55.8388 49.3923 51.5879 48.136 47.016C46.8797 42.4441 46.614 37.6566 47.3567 32.9738C48.0993 28.2909 49.8332 23.8206 52.4425 19.8618C54.8762 16.1692 58.0191 13.001 61.6854 10.5393C66.3603 7.27232 71.8563 5.21314 77.6515 4.67223C75.6829 3.8981 73.6504 3.22679 71.5585 2.66628C41.5511 -5.37419 10.7071 12.4336 2.66663 42.441C-5.37384 72.4485 12.4339 103.292 42.4414 111.333C72.4489 119.373 103.293 101.566 111.333 71.5582ZM99.4037 76.9982C89.9321 97.1416 67.1239 108.241 44.8678 102.277C19.8616 95.577 5.02179 69.8737 11.7222 44.8675C16.3494 27.5983 30.0395 15.1778 46.3041 11.3518C45.5339 12.3261 44.8045 13.3348 44.1186 14.3756C40.7283 19.5194 38.4754 25.3278 37.5105 31.4122C36.5455 37.4967 36.8907 43.7171 38.5231 49.6575C40.1554 55.5978 43.0373 61.1212 46.9759 65.8583C50.9145 70.5953 55.8191 74.4368 61.3617 77.126C66.9043 79.8151 72.9572 81.2899 79.1156 81.4517C85.2741 81.6135 91.3961 80.4586 97.0722 78.0641C97.8608 77.7315 98.6383 77.3759 99.4037 76.9982ZM103.221 22.3786L100.762 14.8125L98.3039 22.3786L90.3484 22.3786L96.7845 27.0547L94.3262 34.6208L100.762 29.9447L107.198 34.6208L104.74 27.0547L111.176 22.3786L103.221 22.3786ZM72.6373 14.8125L75.0957 22.3786L83.0511 22.3786L76.615 27.0547L79.0734 34.6208L72.6373 29.9447L66.2012 34.6208L68.6595 27.0547L62.2234 22.3786L70.1789 22.3786L72.6373 14.8125ZM89.1582 41.1286L86.6998 33.5625L84.2414 41.1286L76.2859 41.1286L82.722 45.8047L80.2637 53.3708L86.6998 48.6947L93.1359 53.3708L90.6775 45.8047L97.1136 41.1286L89.1582 41.1286Z" fill="#434343"/>
</svg>
