<svg width="467" height="467" viewBox="0 0 467 467" fill="none" xmlns="http://www.w3.org/2000/svg">
<path d="M186.242 4.83029C194.479 3.12214 202.716 1.90746 210.839 1.11032C219.19 0.313183 227.465 -0.066406 235.626 0.0095118C240.219 0.0474707 243.901 3.8054 243.863 8.39843C243.825 11.9286 241.586 14.9274 238.473 16.1041C203.741 29.7693 175.955 55.2397 158.911 86.7835C142.133 117.796 135.756 154.654 143.386 191.854L143.424 192.119C152.117 234.102 176.942 268.607 210.156 290.471C243.332 312.335 284.821 321.521 326.803 312.943L327.069 312.905C357.284 306.641 383.59 292.065 404.126 271.985C425.383 251.221 440.414 224.612 447.133 195.46C448.158 190.981 452.637 188.21 457.078 189.235C460.457 190.032 462.886 192.765 463.417 195.991C473.439 257.485 458.293 317.725 425.231 365.705C392.32 413.458 341.607 449.101 280.304 461.703C217.216 474.685 154.85 460.868 105.01 428.072C55.1316 395.162 17.818 343.348 4.83611 280.26C-7.84216 218.653 5.0259 157.729 36.1901 108.496C67.5062 59.1115 117.232 21.4183 178.08 6.65232C179.257 6.34865 180.624 6.04498 182.104 5.70335H182.142L186.242 4.83029Z" fill="#434343"/>
</svg>
