<svg width="132" height="118" viewBox="0 0 132 118" fill="none" xmlns="http://www.w3.org/2000/svg">
<path fill-rule="evenodd" clip-rule="evenodd" d="M122.25 66.1944C122.25 76.8482 115.32 85.787 105.844 88.7989V98.4997C120.587 95.2559 131.625 82.0242 131.625 66.1944C131.625 47.9324 116.934 33.1281 98.8122 33.1281C97.8826 33.1281 96.962 33.1671 96.0519 33.2435C89.3274 13.9193 71.0664 0.0625 49.5937 0.0625C22.411 0.0625 0.375 22.2689 0.375 49.6619C0.375 70.3646 12.9615 88.1048 30.8438 95.5354V85.1603C18.31 78.3998 9.75 65.0688 9.75 49.6619C9.75 27.3784 27.6566 9.4375 49.5937 9.4375C66.5785 9.4375 81.1471 20.1923 86.8593 35.3907L86.8983 35.3753C87.9817 38.3085 88.7411 41.4033 89.1323 44.6145C92.0879 43.2575 95.3672 42.5031 98.8122 42.5031C111.688 42.5031 122.25 53.0418 122.25 66.1944ZM98.8125 70.375H51.9375V79.75H98.8125V70.375ZM89.4375 89.125H42.5625V98.5H89.4375V89.125ZM51.9375 107.875H98.8125V117.25H51.9375V107.875Z" fill="#434343"/>
</svg>
