<svg width="132" height="132" viewBox="0 0 132 132" fill="none" xmlns="http://www.w3.org/2000/svg">
<path fill-rule="evenodd" clip-rule="evenodd" d="M0.375 51.9375C0.375 72.3879 11.8565 90.0576 28.5 98.3939V87.5637C17.2978 80.1339 9.75 67.0741 9.75 51.9375C9.75 28.3147 28.1334 9.75 50.1013 9.75C68.7369 9.75 84.7929 23.1096 89.2353 41.5835L89.2494 41.5777C89.8768 44.1409 90.2768 46.7985 90.4258 49.5257C93.3465 48.0617 96.5962 47.25 99.9811 47.25C111.962 47.25 122.25 57.42 122.25 70.6874C122.25 82.6343 113.908 92.0696 103.5 93.8295V103.299C119.32 101.484 131.625 87.5759 131.625 70.6874C131.625 52.5656 117.458 37.875 99.9811 37.875C99.3068 37.875 98.6374 37.8969 97.9735 37.94C92.091 16.2645 72.8857 0.375 50.1013 0.375C22.6382 0.375 0.375 23.4603 0.375 51.9375ZM51.9366 96.2627C51.937 97.8378 50.7276 98.8225 49.5925 98.8225C48.4575 98.8225 47.2475 97.8378 47.247 96.2627C47.2464 94.2547 48.0608 91.5173 49.4628 88.4707C49.9326 89.4588 50.3593 90.439 50.7244 91.3911C51.6402 93.7794 51.9363 95.4002 51.9366 96.2627ZM49.5839 70.6875C49.5839 70.6875 46.7838 74.1105 43.9219 78.9246C40.9298 83.9575 37.8702 90.5109 37.872 96.2627C37.874 102.854 43.1228 108.197 49.5954 108.197C56.0681 108.197 61.3136 102.854 61.3116 96.2627C61.3099 91.0213 58.1049 84.2705 55.0462 79.0208C52.2541 74.2287 49.5839 70.6875 49.5839 70.6875ZM82.4159 98.8225C83.551 98.8225 84.7604 97.8378 84.7599 96.2627C84.7597 95.4002 84.4636 93.7794 83.5478 91.3911C83.1827 90.439 82.756 89.4588 82.2862 88.4707C80.8841 91.5173 80.0697 94.2547 80.0703 96.2627C80.0708 97.8378 81.2808 98.8225 82.4159 98.8225ZM76.7453 78.9246C79.6072 74.1105 82.4073 70.6875 82.4073 70.6875C82.4073 70.6875 85.0774 74.2287 87.8696 79.0208C90.9282 84.2705 94.1333 91.0213 94.1349 96.2627C94.1369 102.854 88.8915 108.197 82.4188 108.197C75.9461 108.197 70.6974 102.854 70.6953 96.2627C70.6936 90.5109 73.7532 83.9575 76.7453 78.9246ZM74.119 117.562L66 112.875L57.881 117.562V126.938L66 131.625L74.119 126.938V117.562ZM94.125 112.875L102.244 117.562V126.938L94.125 131.625L86.006 126.938V117.562L94.125 112.875ZM45.994 117.562L37.875 112.875L29.756 117.562V126.938L37.875 131.625L45.994 126.938V117.562Z" fill="#434343"/>
</svg>
