<svg width="132" height="132" viewBox="0 0 132 132" fill="none" xmlns="http://www.w3.org/2000/svg">
<path fill-rule="evenodd" clip-rule="evenodd" d="M61.3125 14.4375V0.375H70.6875V14.4375H61.3125ZM98.1652 93.2993C101.498 97.3477 103.5 102.534 103.5 108.187C103.5 121.131 93.0068 131.624 80.0626 131.624L79.8907 131.624H45.0879V131.623L44.9063 131.624C25.49 131.624 9.75 115.884 9.75 96.4677C9.75 84.9383 15.2999 74.7052 23.8738 68.2941C23.8331 67.5346 23.8125 66.7697 23.8125 66C23.8125 42.7005 42.7005 23.8125 66 23.8125C89.2995 23.8125 108.188 42.7005 108.188 66C108.188 76.4111 104.416 85.9414 98.1652 93.2993ZM90.8823 87.3909C87.6455 85.7034 83.9654 84.7494 80.0626 84.7494C76.0993 84.7494 72.3658 85.7331 69.093 87.4697C70.1366 90.2713 70.7071 93.3034 70.7071 96.4687C70.7071 96.8863 70.6972 97.3015 70.6775 97.7141C73.1666 95.4821 76.4561 94.1244 80.0626 94.1244C87.8291 94.1244 94.1251 100.42 94.1251 108.187C94.1251 115.953 87.8291 122.249 80.0625 122.249V122.249H79.9295L79.7493 122.246H45.2968C45.1668 122.248 45.0367 122.249 44.9063 122.249C30.6677 122.249 19.125 110.706 19.125 96.4677C19.125 82.229 30.6677 70.6864 44.9063 70.6864C55.9831 70.6864 65.4283 77.6719 69.0769 87.4779C71.8056 86.0274 74.8549 85.1004 78.091 84.8309C73.288 71.1335 60.2442 61.3114 44.9063 61.3114C40.839 61.3114 36.933 62.0021 33.2992 63.2726C34.6854 46.4268 48.7966 33.1875 66 33.1875C84.1218 33.1875 98.8125 47.8782 98.8125 66C98.8125 74.1723 95.8249 81.6468 90.8823 87.3909ZM131.625 61.3125H117.562V70.6875H131.625V61.3125ZM108.311 36.1593L120.489 29.128L125.177 37.247L112.998 44.2782L108.311 36.1593ZM94.7533 6.82375L87.722 19.0022L95.841 23.6897L102.872 11.5112L94.7533 6.82375ZM36.1593 23.6897L29.128 11.5112L37.247 6.82375L44.2782 19.0022L36.1593 23.6897ZM6.82346 37.247L19.0019 44.2782L23.6894 36.1593L11.511 29.128L6.82346 37.247ZM0.375 61.3125H14.4375V70.6875H0.375V61.3125ZM108.311 95.8407L120.489 102.872L125.177 94.753L112.998 87.7218L108.311 95.8407Z" fill="#434343"/>
</svg>
