<svg width="467" height="467" viewBox="0 0 467 467" fill="none" xmlns="http://www.w3.org/2000/svg">
<path d="M354.375 236.729C354.375 303.366 300.355 357.387 233.717 357.387C167.08 357.387 113.059 303.366 113.059 236.729C113.059 170.092 167.079 116.071 233.717 116.071C300.354 116.071 354.375 170.091 354.375 236.729Z" fill="#C2C2C2"/>
<path d="M205.588 77.906L235.858 0L261.837 77.906H205.588Z" fill="#C2C2C2"/>
<path d="M205.588 388.578L235.858 466.473L261.837 388.578H205.588Z" fill="#C2C2C2"/>
<path d="M77.895 264.838L0 234.548L77.895 208.589V264.838Z" fill="#C2C2C2"/>
<path d="M388.597 264.838L466.472 234.548L388.597 208.589V264.838Z" fill="#C2C2C2"/>
<path d="M103.833 142.94L70.1738 66.468L143.616 103.168L103.833 142.94Z" fill="#C2C2C2"/>
<path d="M323.512 362.66L400.036 396.299L363.295 322.857L323.512 362.66Z" fill="#C2C2C2"/>
<path d="M145.735 365.436L69.2419 399.075L105.962 325.633L145.735 365.436Z" fill="#C2C2C2"/>
<path d="M365.435 145.736L399.053 69.223L325.653 105.974L365.435 145.736Z" fill="#C2C2C2"/>
</svg>
