<svg width="132" height="132" viewBox="0 0 132 132" fill="none" xmlns="http://www.w3.org/2000/svg">
<path fill-rule="evenodd" clip-rule="evenodd" d="M103.5 103.299C119.32 101.484 131.625 87.5759 131.625 70.6874C131.625 52.5656 117.458 37.875 99.9811 37.875C99.3068 37.875 98.6374 37.8969 97.9735 37.94C92.091 16.2645 72.8857 0.375 50.1013 0.375C22.6382 0.375 0.375 23.4603 0.375 51.9375C0.375 76.0401 16.3236 96.2802 37.875 101.93V92.1429C21.7153 86.7616 9.75 70.9957 9.75 51.9375C9.75 28.3147 28.1334 9.75 50.1013 9.75C68.7369 9.75 84.7929 23.1096 89.2353 41.5835L89.2494 41.5777C89.8768 44.1409 90.2768 46.7985 90.4258 49.5257C93.3465 48.0617 96.5962 47.25 99.9811 47.25C111.962 47.25 122.25 57.42 122.25 70.6874C122.25 82.6343 113.908 92.0696 103.5 93.8295V103.299ZM54.2909 122.26C55.426 122.26 56.6354 121.275 56.6349 119.7C56.6347 118.838 56.3386 117.217 55.4228 114.829C55.0577 113.876 54.631 112.896 54.1612 111.908C52.7591 114.955 51.9447 117.692 51.9453 119.7C51.9458 121.275 53.1558 122.26 54.2909 122.26ZM48.6203 102.362C51.4822 97.548 54.2823 94.125 54.2823 94.125C54.2823 94.125 56.9524 97.6662 59.7446 102.458C62.8032 107.708 66.0083 114.459 66.0099 119.7C66.0119 126.292 60.7665 131.635 54.2938 131.635C47.8211 131.635 42.5724 126.292 42.5703 119.7C42.5686 113.948 45.6282 107.395 48.6203 102.362ZM84.7599 105.638C84.7604 107.213 83.551 108.197 82.4159 108.197C81.2808 108.197 80.0708 107.213 80.0703 105.638C80.0697 103.63 80.8841 100.892 82.2862 97.8457C82.756 98.8338 83.1827 99.814 83.5478 100.766C84.4636 103.154 84.7597 104.775 84.7599 105.638ZM82.4073 80.0625C82.4073 80.0625 79.6072 83.4855 76.7453 88.2996C73.7532 93.3325 70.6936 99.8859 70.6953 105.638C70.6974 112.229 75.9461 117.572 82.4188 117.572C88.8915 117.572 94.1369 112.229 94.1349 105.638C94.1333 100.396 90.9282 93.6455 87.8696 88.3958C85.0774 83.6037 82.4073 80.0625 82.4073 80.0625Z" fill="#434343"/>
</svg>
