<svg width="132" height="132" viewBox="0 0 132 132" fill="none" xmlns="http://www.w3.org/2000/svg">
<path fill-rule="evenodd" clip-rule="evenodd" d="M73.6691 0.375V11.7897H83.0441V0.375H73.6691ZM131.625 48.9559H120.21L120.21 58.3309H131.625V48.9559ZM112.259 28.6571L122.145 22.9497L126.832 31.0687L116.947 36.776L112.259 28.6571ZM100.932 5.16774L95.2242 15.0531L103.343 19.7406L109.051 9.85524L100.932 5.16774ZM53.3702 19.7406L47.6628 9.85524L55.7818 5.16774L61.4892 15.0531L53.3702 19.7406ZM131.625 97.6406C131.625 83.4539 123.232 71.2975 111.308 66.2073C112.786 62.3013 113.595 58.0665 113.595 53.6428C113.595 34.0299 97.6954 18.1305 78.0825 18.1305C67.6833 18.1305 58.3281 22.6004 51.8334 29.7237C51.091 29.6893 50.3443 29.6719 49.5938 29.6719C22.411 29.6719 0.375 52.4949 0.375 80.6484C0.375 108.802 22.411 131.625 49.5938 131.625C49.9024 131.625 50.2104 131.622 50.5177 131.616V131.625H98.7884L98.8125 131.625L98.8365 131.625H99.944V131.605C117.542 130.988 131.625 116.017 131.625 97.6406ZM104.22 53.6428C104.22 57.2571 103.486 60.7001 102.16 63.8309C101.059 63.7154 99.9425 63.6562 98.8125 63.6562C97.8828 63.6562 96.9622 63.6963 96.0522 63.7748C90.8653 48.4548 78.814 36.4781 63.7192 31.8023C67.841 29.0862 72.7771 27.5055 78.0825 27.5055C92.5178 27.5055 104.22 39.2076 104.22 53.6428ZM49.5938 122.25L49.7863 122.25V122.25L50.5177 122.25L98.7998 122.25H98.8125L98.8325 122.25C111.461 122.239 122.25 111.537 122.25 97.6406C122.25 83.7364 111.449 73.0312 98.8125 73.0312C95.3898 73.0312 92.1019 73.8166 89.1268 75.238C88.7222 72.0184 87.9608 68.9148 86.8851 65.9712L86.8953 65.9671C81.1731 50.1069 66.4559 39.0469 49.5938 39.0469C27.896 39.0469 9.75 57.3597 9.75 80.6484C9.75 103.937 27.896 122.25 49.5938 122.25Z" fill="#434343"/>
</svg>
