<svg width="132" height="132" viewBox="0 0 132 132" fill="none" xmlns="http://www.w3.org/2000/svg">
<path fill-rule="evenodd" clip-rule="evenodd" d="M33.1875 100.441C14.0509 93.264 0.375 74.2568 0.375 51.9375C0.375 23.4603 22.6382 0.375 50.1013 0.375C72.8857 0.375 92.091 16.2645 97.9735 37.94C98.6374 37.8969 99.3068 37.875 99.9811 37.875C117.458 37.875 131.625 52.5656 131.625 70.6874C131.625 87.5759 119.32 101.484 103.5 103.299V93.8295C113.908 92.0696 122.25 82.6343 122.25 70.6874C122.25 57.42 111.962 47.25 99.9811 47.25C96.5962 47.25 93.3465 48.0617 90.4258 49.5257C90.2768 46.7985 89.8768 44.1409 89.2494 41.5777L89.2353 41.5835C84.7929 23.1096 68.7369 9.75 50.1013 9.75C28.1334 9.75 9.75 28.3147 9.75 51.9375C9.75 69.101 19.4545 83.5944 33.1875 90.2371V100.441ZM56.625 75.375L53.1397 77.8146L53.8791 82.0041L49.6896 81.2647L47.25 84.75L44.8104 81.2647L40.6209 82.0041L41.3603 77.8146L37.875 75.375L41.3603 72.9354L40.6209 68.7459L44.8104 69.4853L47.25 66L49.6896 69.4853L53.8791 68.7459L53.1397 72.9354L56.625 75.375ZM71.8897 91.8771L75.375 89.4375L71.8897 86.9979L72.6291 82.8084L68.4396 83.5478L66 80.0625L63.5604 83.5478L59.3709 82.8084L60.1103 86.9979L56.625 89.4375L60.1103 91.8771L59.3709 96.0666L63.5604 95.3272L66 98.8125L68.4396 95.3272L72.6291 96.0666L71.8897 91.8771ZM75.375 61.3125L71.8897 63.7521L72.6291 67.9416L68.4396 67.2022L66 70.6875L63.5604 67.2022L59.3709 67.9416L60.1103 63.7521L56.625 61.3125L60.1103 58.8729L59.3709 54.6834L63.5604 55.4228L66 51.9375L68.4396 55.4228L72.6291 54.6834L71.8897 58.8729L75.375 61.3125ZM90.6397 77.8146L94.125 75.375L90.6397 72.9354L91.3791 68.7459L87.1896 69.4853L84.75 66L82.3104 69.4853L78.1209 68.7459L78.8603 72.9354L75.375 75.375L78.8603 77.8146L78.1209 82.0041L82.3104 81.2647L84.75 84.75L87.1896 81.2647L91.3791 82.0041L90.6397 77.8146ZM49.6034 122.26C50.7385 122.26 51.9479 121.275 51.9474 119.7C51.9472 118.838 51.6511 117.217 50.7353 114.829C50.3702 113.876 49.9435 112.896 49.4737 111.908C48.0716 114.955 47.2572 117.692 47.2578 119.7C47.2583 121.275 48.4683 122.26 49.6034 122.26ZM43.9328 102.362C46.7947 97.548 49.5948 94.125 49.5948 94.125C49.5948 94.125 52.2649 97.6662 55.0571 102.458C58.1157 107.708 61.3208 114.459 61.3224 119.7C61.3244 126.292 56.079 131.635 49.6063 131.635C43.1336 131.635 37.8849 126.292 37.8828 119.7C37.8811 113.948 40.9407 107.395 43.9328 102.362ZM84.7599 119.7C84.7604 121.275 83.551 122.26 82.4159 122.26C81.2808 122.26 80.0708 121.275 80.0703 119.7C80.0697 117.692 80.8841 114.955 82.2862 111.908C82.756 112.896 83.1827 113.876 83.5478 114.829C84.4636 117.217 84.7597 118.838 84.7599 119.7ZM82.4073 94.125C82.4073 94.125 79.6072 97.548 76.7453 102.362C73.7532 107.395 70.6936 113.948 70.6953 119.7C70.6974 126.292 75.9461 131.635 82.4188 131.635C88.8915 131.635 94.1369 126.292 94.1349 119.7C94.1333 114.459 90.9282 107.708 87.8696 102.458C85.0774 97.6662 82.4073 94.125 82.4073 94.125Z" fill="#434343"/>
</svg>
