<svg width="132" height="132" viewBox="0 0 132 132" fill="none" xmlns="http://www.w3.org/2000/svg">
<path fill-rule="evenodd" clip-rule="evenodd" d="M61.3125 14.4375V0.375H70.6875V14.4375H61.3125ZM87.722 19.0022L94.7533 6.82375L102.872 11.5112L95.841 23.6897L87.722 19.0022ZM66 98.8125C84.1218 98.8125 98.8125 84.1218 98.8125 66C98.8125 47.8782 84.1218 33.1875 66 33.1875C47.8782 33.1875 33.1875 47.8782 33.1875 66C33.1875 84.1218 47.8782 98.8125 66 98.8125ZM66 108.188C89.2995 108.188 108.188 89.2995 108.188 66C108.188 42.7005 89.2995 23.8125 66 23.8125C42.7005 23.8125 23.8125 42.7005 23.8125 66C23.8125 89.2995 42.7005 108.188 66 108.188ZM117.562 61.3125H131.625V70.6875H117.562V61.3125ZM120.489 29.128L108.311 36.1593L112.998 44.2782L125.177 37.247L120.489 29.128ZM29.128 11.5112L36.1593 23.6897L44.2782 19.0022L37.247 6.82375L29.128 11.5112ZM19.0019 44.2782L6.82346 37.247L11.511 29.128L23.6894 36.1593L19.0019 44.2782ZM61.3125 117.562V131.625H70.6875V117.562H61.3125ZM14.4375 61.3125H0.375V70.6875H14.4375V61.3125ZM6.82321 94.753L19.0017 87.7218L23.6892 95.8407L11.5107 102.872L6.82321 94.753ZM36.1595 108.311L29.1283 120.49L37.2473 125.177L44.2785 112.999L36.1595 108.311ZM94.753 125.177L87.7218 112.999L95.8407 108.311L102.872 120.49L94.753 125.177ZM108.311 95.8407L120.489 102.872L125.177 94.753L112.998 87.7218L108.311 95.8407Z" fill="#434343"/>
</svg>
