<svg width="132" height="132" viewBox="0 0 132 132" fill="none" xmlns="http://www.w3.org/2000/svg">
<path fill-rule="evenodd" clip-rule="evenodd" d="M0.375 51.9375C0.375 74.2568 14.0509 93.264 33.1875 100.441V90.2371C19.4545 83.5944 9.75 69.101 9.75 51.9375C9.75 28.3147 28.1334 9.75 50.1013 9.75C68.7369 9.75 84.7929 23.1096 89.2353 41.5835L89.2494 41.5777C89.8768 44.1409 90.2768 46.7985 90.4258 49.5257C93.3465 48.0617 96.5962 47.25 99.9811 47.25C111.962 47.25 122.25 57.42 122.25 70.6874C122.25 83.8619 112.106 93.9822 100.233 94.1233V94.125H98.8125V103.478C99.2003 103.492 99.5898 103.5 99.9811 103.5C117.458 103.5 131.625 88.8092 131.625 70.6874C131.625 52.5656 117.458 37.875 99.9811 37.875C99.3068 37.875 98.6374 37.8969 97.9735 37.94C92.091 16.2645 72.8857 0.375 50.1013 0.375C22.6382 0.375 0.375 23.4603 0.375 51.9375ZM71.4748 68.0873L52.7248 96.2123L47.8663 103.5H56.625H70.8949L55.9499 124.193L63.5501 129.682L83.8626 101.557L89.2301 94.125H80.0625H65.3837L79.2753 73.2877L71.4748 68.0873ZM86.4418 117.208C85.4685 119.488 84.7542 121.925 84.7549 124.168C84.7562 128.286 87.9052 131.625 91.7884 131.625C95.6717 131.625 98.8187 128.286 98.8174 124.168C98.8168 122.071 98.0284 119.588 96.9798 117.212C94.895 112.488 91.7812 108.188 91.7812 108.188C91.7812 108.188 88.5207 112.339 86.4418 117.208ZM33.1924 124.168C33.1917 121.925 33.906 119.488 34.8793 117.208C36.9582 112.339 40.2188 108.188 40.2188 108.188C40.2188 108.188 43.3325 112.488 45.4173 117.212C46.466 119.588 47.2543 122.071 47.2549 124.168C47.2562 128.286 44.1092 131.625 40.2259 131.625C36.3427 131.625 33.1937 128.286 33.1924 124.168Z" fill="#434343"/>
</svg>
