<svg width="114" height="90" viewBox="0 0 114 90" fill="none" xmlns="http://www.w3.org/2000/svg">
<path fill-rule="evenodd" clip-rule="evenodd" d="M47.6256 19.5361L47.6256 19.5085L21.0909 19.5082L46.5438 10.3109L46.5411 10.3033C47.0285 10.1804 47.5329 10.1367 48.0349 10.1742C48.1012 10.1791 48.1674 10.1855 48.2334 10.1932L48.2344 10.1933C48.9238 10.2745 49.5865 10.5079 50.1746 10.8765L50.1747 10.8766C50.7629 11.2452 51.2618 11.7399 51.6355 12.325L51.6361 12.326C52.0096 12.9111 52.2486 13.5718 52.3356 14.2605L52.3358 14.2619C52.4227 14.9509 52.3555 15.6506 52.1391 16.3105L52.1389 16.311C51.9223 16.971 51.5617 17.5746 51.0833 18.0781L51.0829 18.0786C50.6046 18.5819 50.0204 18.9726 49.3727 19.2225L49.3714 19.223C49.3105 19.2465 49.2492 19.2686 49.1875 19.2895C48.6844 19.4597 48.1562 19.543 47.6256 19.5361ZM0.75 16.8887V28.8837L47.5292 28.8843C49.3058 28.9042 51.0729 28.5864 52.7356 27.945L52.7369 27.9445C54.0025 27.4561 55.1871 26.7881 56.2554 25.964C56.8243 25.5252 57.3602 25.0421 57.8578 24.5184L57.8583 24.5179C59.2904 23.0104 60.3698 21.2034 61.0184 19.2275L61.0185 19.227C61.667 17.2511 61.8685 15.1558 61.6083 13.0926L61.6082 13.0913C61.3478 11.028 60.6324 9.04833 59.5136 7.29547L59.513 7.29451C58.3939 5.54144 56.8993 4.05908 55.1372 2.95464L55.1371 2.95459C54.5248 2.57079 53.8855 2.23596 53.2252 1.95223C51.9855 1.41948 50.6719 1.06688 49.3244 0.908454L49.3234 0.908337C47.3158 0.672456 45.2816 0.873318 43.3599 1.49635L43.3585 1.49235L43.2146 1.54433L43.1977 1.55004L43.1957 1.5507L43.1959 1.55112L0.75 16.8887ZM0.75 57.0533V66.6837L62.6523 88.7061L62.6515 88.7079C64.8918 89.6018 67.3015 89.9904 69.7091 89.846C70.6348 89.7905 71.5515 89.6567 72.4495 89.4474C73.887 89.1123 75.2769 88.5836 76.5802 87.8726C78.6976 86.7173 80.5342 85.1091 81.9591 83.1626C83.384 81.216 84.3621 78.979 84.8237 76.611C85.2853 74.243 85.2191 71.8023 84.6297 69.4628C84.0404 67.1234 82.9424 64.9428 81.414 63.0764C80.4732 61.9275 79.3837 60.9152 78.1772 60.0643C77.4237 59.5329 76.6245 59.0645 75.7876 58.6652C73.614 57.6281 71.2388 57.0827 68.8307 57.0675V57.0536L0.75 57.0533ZM68.7671 66.4293L28.0083 66.4292L66.3009 80.0522L66.2974 80.0619C67.2076 80.3977 68.1782 80.5415 69.1479 80.4833C70.1789 80.4215 71.1835 80.133 72.0902 79.6383C72.997 79.1436 73.7834 78.4549 74.3936 77.6213C75.0038 76.7878 75.4226 75.8298 75.6203 74.8158C75.818 73.8018 75.7896 72.7566 75.5373 71.7548C75.2849 70.753 74.8147 69.8192 74.1602 69.02C73.5057 68.2207 72.6831 67.5758 71.7508 67.131C70.8199 66.6869 69.8027 66.4533 68.7714 66.4468L68.767 66.4468L68.767 66.4451L68.7671 66.4293ZM89.8971 20.7256L89.8929 20.7279L85.2826 12.5648L85.2773 12.5554L85.2865 12.5502C87.7827 11.1414 90.5686 10.3238 93.4301 10.1602C93.8452 10.1365 94.2602 10.1266 94.6746 10.1304C97.1205 10.1532 99.5425 10.6546 101.803 11.6106C104.446 12.7287 106.797 14.4386 108.675 16.6089C110.554 18.7791 111.909 21.3516 112.637 24.1283C113.365 26.9051 113.446 29.8118 112.874 32.6248C112.301 35.4377 111.091 38.0817 109.337 40.3532C107.836 42.2953 105.972 43.9208 103.852 45.1411C103.493 45.3479 103.126 45.5432 102.753 45.7263C100.176 46.9898 97.3435 47.6447 94.4738 47.6407V47.6393H0.75V38.2643H94.4869L94.4869 38.2542C95.9204 38.2562 97.3353 37.929 98.6225 37.2979C99.9097 36.6668 101.035 35.7485 101.911 34.6138C102.788 33.4792 103.392 32.1584 103.678 30.7532C103.964 29.3481 103.924 27.896 103.56 26.509C103.196 25.1219 102.519 23.8368 101.581 22.7527C100.643 21.6686 99.4683 20.8144 98.1479 20.2559C96.8276 19.6975 95.3968 19.4496 93.9656 19.5314C92.536 19.6131 91.1441 20.0217 89.8971 20.7256Z" fill="#434343"/>
</svg>
